<svg width="165" height="45" viewBox="0 0 165 45" fill="none" xmlns="http://www.w3.org/2000/svg">
<path d="M5.22083 18.9582C5.28722 19.0898 5.2999 19.2334 5.27075 19.3694C5.05459 19.3571 4.83869 19.3488 4.61847 19.3406C4.45655 19.3366 4.29867 19.32 4.14052 19.3077C4.23201 19.3077 4.1281 19.2831 3.96591 19.25C3.96186 19.0032 4.09896 18.7649 4.33996 18.6498C4.6684 18.4938 5.06295 18.6295 5.22083 18.9582Z" fill="url(#paint0_linear_66_1677)"/>
<path d="M9.57923 6.18062C9.49203 6.16836 9.40889 6.16406 9.32576 6.16406C8.53634 6.16406 7.93805 6.5833 7.51847 7.03962C7.31067 7.26153 7.15269 7.49586 7.03233 7.68922C6.97845 7.77973 6.94091 7.85766 6.9036 7.91938C6.89531 7.92764 6.89125 7.9359 6.89125 7.94392C6.89125 7.94392 6.88718 7.94793 6.88718 7.95225C6.81242 8.09615 6.77496 8.18666 6.77496 8.18666L4.26131 14.1843L4.10344 14.5584H4.11585C4.07834 14.6569 3.72534 15.5738 3.23094 16.8563C3.28086 16.8191 3.33484 16.7823 3.39286 16.7534C3.75854 16.5767 4.1906 16.7247 4.36521 17.0865C4.54388 17.444 4.39005 17.8757 4.02869 18.0485C3.66732 18.2212 3.23094 18.073 3.05632 17.7155C3.02313 17.6455 2.99831 17.5716 2.98994 17.4976C2.81964 17.9374 2.64099 18.406 2.45801 18.8912C2.58269 18.846 2.71142 18.8255 2.84448 18.8255C3.11462 18.8255 3.36803 18.92 3.56747 19.0845C3.61739 18.7475 3.83329 18.4348 4.16578 18.2746C4.31124 18.2046 4.46912 18.1718 4.63104 18.1718C5.03829 18.1718 5.42043 18.4063 5.59909 18.7761C5.69462 18.9735 5.71972 19.183 5.69462 19.3846C5.84844 19.3929 6.0063 19.4052 6.15988 19.4174L6.34261 18.9488C6.15152 18.9037 5.98124 18.7761 5.88972 18.5913C5.73186 18.2666 5.86894 17.8759 6.20146 17.7198C6.4049 17.6213 6.63348 17.6376 6.81648 17.7443L10.9172 7.29888V7.29487L11.2414 6.4933C10.8797 6.35334 10.3645 6.26709 9.57923 6.18062ZM5.81472 17.0619C5.51974 17.2015 5.17079 17.0824 5.02533 16.7906C4.88419 16.4987 5.00455 16.1535 5.30385 16.0096C5.59881 15.8657 5.94773 15.989 6.09324 16.2808C6.23439 16.5727 6.11402 16.9222 5.81472 17.0619Z" fill="url(#paint1_linear_66_1677)"/>
<path d="M9.83108 19.4019C9.86017 19.4676 9.88097 19.5336 9.88504 19.5952L9.82271 19.7554C9.78947 19.8377 9.76029 19.9198 9.72722 20.0061C9.70641 20.0596 9.68561 20.1173 9.6648 20.1746C9.65644 20.1869 9.65237 20.1992 9.64815 20.2117C9.63978 20.2077 9.63133 20.2077 9.62328 20.2035C9.5941 20.1952 9.56525 20.1869 9.53608 20.183C9.53608 20.183 9.53608 20.183 9.53201 20.183C9.29935 20.1212 9.0501 20.0801 8.78826 20.0678C8.75917 20.0638 8.72999 20.0596 8.70114 20.0638C8.67627 20.031 8.65547 19.9982 8.63873 19.961C8.48091 19.6364 8.61801 19.25 8.94616 19.0937C9.27838 18.9333 9.66911 19.0729 9.83108 19.4019Z" fill="url(#paint2_linear_66_1677)"/>
<path d="M7.91355 19.7479C7.66853 19.6656 7.41506 19.604 7.14062 19.5588C7.4192 19.4397 7.73492 19.522 7.91355 19.7479Z" fill="url(#paint3_linear_66_1677)"/>
<path d="M12.176 7.48564C12.0265 7.11984 11.8726 6.86482 11.6026 6.68404C11.5902 6.67178 11.5777 6.66344 11.5693 6.65951C11.4778 6.59778 11.3699 6.54447 11.2452 6.49927L10.9211 7.30486V7.3088C10.9211 7.3088 10.9211 7.3088 10.9211 7.31288L6.82037 17.7504C6.92829 17.816 7.0198 17.9106 7.08213 18.0339C7.24003 18.3586 7.09887 18.745 6.77047 18.9054C6.63337 18.9711 6.48386 18.9837 6.34672 18.9548L6.16406 19.4234C6.30514 19.44 6.44658 19.4523 6.5877 19.4728C6.68327 19.3618 6.79956 19.2672 6.94104 19.2016C7.09058 19.1316 7.24433 19.0947 7.4063 19.0947C7.73876 19.0947 8.05018 19.251 8.2496 19.506C8.30365 19.2018 8.49901 18.9263 8.80238 18.7824C8.93939 18.7166 9.08486 18.6835 9.2387 18.6835C9.56693 18.6835 9.88265 18.852 10.0696 19.1193C11.0213 16.6324 11.8562 14.4659 11.9641 14.1945L12.8866 11.9623C12.8866 11.9584 12.8866 11.9584 12.8866 11.9541L13.1484 11.3498C13.1484 11.3498 12.5333 8.34087 12.176 7.48564ZM8.76077 18.1861C8.46577 18.3301 8.11251 18.2067 7.97134 17.9149C7.83026 17.623 7.95062 17.2777 8.2496 17.1338C8.5446 16.9941 8.89356 17.1133 9.03496 17.4051C9.18043 17.697 9.05983 18.0465 8.76077 18.1861Z" fill="url(#paint4_linear_66_1677)"/>
<path d="M22.2404 6.34689L26.1562 6.89986L20.8349 19.6553L20.5467 20.345L19.8965 21.0744L21.3015 24.5245L23.403 25.7274L24.2739 25.5068L25.6089 25.1674L25.6124 25.1637C25.8054 24.9976 25.9987 24.7915 26.1549 24.5352L26.4296 23.9357C26.439 23.9176 26.445 23.9037 26.4512 23.8924C26.455 23.8924 26.4547 23.8887 26.4547 23.8887L26.4574 23.8781L28.0789 20.345L36.4976 0L22.2404 6.34689Z" fill="url(#paint5_linear_66_1677)"/>
<path d="M22.2386 6.3491L26.1545 6.90206L20.5449 20.3469L21.2994 24.5264L22.4691 24.0226L31.3631 2.2876L22.2386 6.3491Z" fill="url(#paint6_linear_66_1677)"/>
<path d="M8.43657 5.94645C7.6858 6.36483 7.09884 7.19229 6.86752 8.03392C6.86489 8.04091 6.86163 8.04807 6.85868 8.0553C6.85644 8.07347 6.85078 8.08809 6.84863 8.10634C6.9666 7.91455 10.4342 2.4096 12.8971 11.9966C13.1054 12.8129 13.3089 13.7378 13.5013 14.7856C13.9452 17.1257 14.5366 19.4415 15.0486 21.7717C15.236 22.6381 15.681 23.8122 16.264 24.5315C17.6582 26.243 20.4938 27.0268 22.4698 26.5726C23.5382 26.3266 24.7913 25.8711 25.6093 25.1672C25.8022 25.0012 25.9954 24.795 26.1517 24.5387C26.2735 24.351 26.3748 24.138 26.448 23.896C26.4418 23.907 26.4361 23.9211 26.4264 23.9393C26.2847 24.2319 25.5617 25.5355 24.1182 25.1528C24.1109 25.1496 24.1031 25.1459 24.0923 25.1459C24.0507 25.1312 24.0097 25.1205 23.972 25.1061C23.8964 25.0808 23.8135 25.0519 23.7333 25.0156C22.6276 24.535 21.4192 23.1882 20.8579 19.7816C20.8505 19.7418 20.8395 19.6987 20.8322 19.6591C20.211 16.8448 19.5134 14.0343 18.9712 11.2095C18.7098 9.84023 18.3364 8.36662 17.3702 7.24301C16.4336 6.15976 15.0992 5.61375 13.7516 5.40815C13.0836 5.30669 12.3749 5.23779 11.6702 5.23779C10.5173 5.23753 9.37497 5.42149 8.43657 5.94645Z" fill="url(#paint7_linear_66_1677)"/>
<path d="M20.8268 26.6794C20.7208 26.6735 20.6145 26.6615 20.5081 26.6495C20.4169 26.6407 20.3224 26.6286 20.228 26.6136C20.1179 26.5958 20.0078 26.575 19.9004 26.5541C19.8914 26.5541 19.879 26.5512 19.8666 26.5483C19.6459 26.5036 19.424 26.4471 19.2041 26.3784C19.0894 26.3427 18.978 26.3068 18.8659 26.2681C18.8567 26.2652 18.8473 26.2623 18.8379 26.2561C18.7321 26.2174 18.6292 26.1787 18.5226 26.1341C18.4137 26.0925 18.3035 26.0417 18.1964 25.988C18.0957 25.9403 17.9981 25.8927 17.9033 25.842C17.8814 25.833 17.8593 25.8212 17.8399 25.8062C17.7543 25.7584 17.6655 25.708 17.5826 25.6572C17.5735 25.6543 17.567 25.6513 17.5603 25.6423C17.4615 25.5827 17.3686 25.5202 17.2756 25.4546C17.1857 25.3921 17.0988 25.3294 17.0141 25.2581C17.0048 25.2551 16.9949 25.246 16.9852 25.2372C16.9301 25.1956 16.8781 25.1507 16.8257 25.1032C16.7804 25.0674 16.7377 25.0287 16.6948 24.9871C16.5404 24.844 16.3974 24.692 16.2655 24.5312C16.1912 24.4418 16.1221 24.3435 16.0527 24.2423C15.9861 24.138 15.9194 24.0309 15.855 23.9177C15.7937 23.8044 15.7318 23.6883 15.6731 23.5692C15.3848 22.9733 15.1687 22.3119 15.0507 21.7698C14.5377 19.443 13.9477 17.1281 13.5027 14.7864C13.4045 14.2619 13.3062 13.7704 13.2072 13.3058C13.1819 13.1897 13.1562 13.0735 13.1313 12.9632C13.0568 12.6356 12.9808 12.3256 12.9063 12.0308C12.9023 12.0188 12.9012 12.0071 12.8971 11.9951C12.8933 11.9863 12.8922 11.9742 12.8885 11.9652C12.8642 11.861 12.8369 11.7596 12.81 11.6613C12.7967 11.6138 12.7832 11.566 12.77 11.5181C12.6763 11.1785 12.5843 10.8597 12.4885 10.5617C12.3962 10.2728 12.3029 10.0016 12.2079 9.74847C12.1439 9.57272 12.0778 9.40578 12.0124 9.24773C11.7399 8.59223 11.4643 8.07395 11.1869 7.66576L11.1864 7.65986C11.1136 7.55252 11.0417 7.45722 10.9702 7.36482C10.9533 7.34398 10.9397 7.32605 10.923 7.3082C10.9227 7.3053 10.9197 7.3053 10.9197 7.3053C10.8989 7.27534 10.8755 7.2486 10.852 7.22202C10.7748 7.13246 10.6949 7.04918 10.6194 6.97762C10.5797 6.93894 10.5436 6.90316 10.5044 6.87029C10.4293 6.80455 10.3516 6.74502 10.2745 6.69139C9.71317 6.3072 9.1698 6.29515 8.68837 6.46499C8.65035 6.47697 8.61551 6.49169 8.58076 6.50663C8.53995 6.52154 8.50544 6.53947 8.46798 6.5574C8.43338 6.57525 8.39584 6.59318 8.36133 6.61103C8.35567 6.61394 8.34969 6.61693 8.34411 6.61984C8.2809 6.65562 8.21825 6.69438 8.15544 6.73307C8.15002 6.73889 8.14404 6.74188 8.13544 6.74502C8.07605 6.78678 8.01938 6.82838 7.96303 6.87029C7.90094 6.91786 7.8394 6.96858 7.78058 7.0193C7.72494 7.07002 7.66612 7.1205 7.61375 7.17413L7.61343 7.17122C7.58274 7.12963 7.55166 7.08787 7.52121 7.04918C7.50686 7.02543 7.48988 7.00169 7.47291 6.98053C7.4521 6.95065 7.43162 6.924 7.41113 6.89726C7.45912 6.82861 7.51037 6.76319 7.56489 6.69753C7.59996 6.65294 7.63535 6.61103 7.67401 6.56935C7.70932 6.52768 7.74822 6.48902 7.78408 6.45322C7.78919 6.44413 7.79485 6.43828 7.80027 6.43243C7.87495 6.35787 7.95601 6.2893 8.03724 6.22095C8.07924 6.18811 8.12141 6.15231 8.167 6.12264C8.25444 6.05696 8.34539 5.99741 8.43713 5.94695C9.3776 5.42256 10.5205 5.23779 11.6708 5.23779C12.023 5.23779 12.3771 5.25567 12.726 5.28559H12.729C13.0897 5.54779 13.4282 5.86366 13.7418 6.23589C14.8393 7.56157 15.3932 9.37008 15.825 11.0624C16.7185 14.5424 17.7629 17.9954 18.7334 21.4601C18.7436 21.5078 18.7636 21.5613 18.7742 21.612C19.3635 24.132 20.0893 25.708 20.8268 26.6794Z" fill="url(#paint8_linear_66_1677)"/>
<path d="M47.3295 8.979L47.2737 20.4916C47.3013 21.9992 46.4513 23.3873 45.0762 24.1567C43.6918 24.9214 41.973 24.9214 40.5885 24.1567C39.2133 23.3873 38.363 21.9992 38.3911 20.4916V8.979H37.146V20.4916C37.1183 22.4236 38.2053 24.2009 39.9798 25.1692C41.759 26.133 43.9613 26.133 45.7404 25.1692C47.515 24.2009 48.6022 22.4236 48.5742 20.4916V8.979H47.3295Z" fill="url(#paint9_linear_66_1677)"/>
<path fill-rule="evenodd" clip-rule="evenodd" d="M36.6079 8.45166H38.9245V20.5024C38.9003 21.801 39.632 23.0159 40.8491 23.6973C42.0703 24.3714 43.5896 24.3714 44.8109 23.6974C46.0279 23.016 46.7596 21.8011 46.7357 20.5023L46.7356 20.4963L46.7939 8.45166H49.1076V20.4891C49.1371 22.6261 47.9333 24.5765 45.9974 25.6329L45.996 25.6336C44.0562 26.6844 41.6594 26.6844 39.7196 25.6336L39.7182 25.6329C37.7823 24.5765 36.5788 22.626 36.6079 20.4891V8.45166ZM37.6794 9.50875V20.5002C37.6547 22.2255 38.6245 23.8277 40.2361 24.7075C41.8543 25.5837 43.8614 25.5837 45.4796 24.7074C47.0912 23.8276 48.0612 22.2255 48.0362 20.5003L48.0361 20.4927L48.0362 9.50875H47.8603L47.8071 20.4894C47.8362 22.2031 46.8688 23.7613 45.3382 24.6176L45.3357 24.619C43.7886 25.4735 41.8715 25.4736 40.3245 24.619L40.3219 24.6176C38.791 23.7611 37.8231 22.2023 37.8531 20.488V9.50875H37.6794Z" fill="url(#paint10_linear_66_1677)"/>
<path d="M60.6866 19.9248L53.5791 9.92676V26.1351H54.7876V13.7387L60.6862 22.0203L66.6615 13.7114V26.1075H67.8656V9.92676L60.6866 19.9248Z" fill="url(#paint11_linear_66_1677)"/>
<path fill-rule="evenodd" clip-rule="evenodd" d="M53.041 8.2522L60.6865 19.0068L68.399 8.2658V26.6356H66.1234V15.3693L60.6818 22.9362L55.3209 15.4097V26.6631H53.041V8.2522ZM67.3275 11.5867L60.6821 20.8417L54.1125 11.6004V25.6061H54.2495V12.0668L60.686 21.1035L67.1949 12.0525V25.5785H67.3275V11.5867Z" fill="url(#paint12_linear_66_1677)"/>
<path d="M83.5812 10.0954V8.9292H72.8662V26.1374H83.5812V24.9225H74.1106V21.3705H79.1933V20.2042H74.1106V10.0957L83.5812 10.0954Z" fill="url(#paint13_linear_66_1677)"/>
<path fill-rule="evenodd" clip-rule="evenodd" d="M72.3281 8.40186H84.1143V10.6252L74.644 10.6254V19.6769H79.7272V21.9003H74.644V24.3952H84.1143V26.6672H72.3281V8.40186ZM73.3996 9.45894V25.6101H83.0431V25.4523H73.5725V20.8432H78.656V20.734H73.5725V9.5684L83.0431 9.56816V9.45894H73.3996Z" fill="url(#paint14_linear_66_1677)"/>
<path d="M100.223 8.77246V22.1396L89.292 9.78402V26.0426H90.4964V13.3438L101.349 25.2965L101.436 8.77246H100.223Z" fill="url(#paint15_linear_66_1677)"/>
<path fill-rule="evenodd" clip-rule="evenodd" d="M99.6881 8.24512H101.975L101.878 26.6719L91.0327 14.7272V26.5723H88.7578V8.37581L99.6881 20.7314V8.24512ZM100.759 9.30212V23.5503L89.8291 11.1945V25.5153H89.9614V11.9629L100.822 23.9235L100.898 9.30212H100.759Z" fill="url(#paint16_linear_66_1677)"/>
<path d="M106.435 9.04321V10.2113H111.519V25.9562H112.779V10.2113H117.864V9.04321H106.435Z" fill="url(#paint17_linear_66_1677)"/>
<path fill-rule="evenodd" clip-rule="evenodd" d="M105.896 8.51587H118.398V10.7411H113.313V26.4859H110.981V10.7411H105.896V8.51587ZM106.969 9.57296V9.68399H112.053V25.4289H112.241V9.68399H117.326V9.57296H106.969Z" fill="url(#paint18_linear_66_1677)"/>
<path d="M122.867 9.05029V25.9633H124.296V9.05029H122.867Z" fill="url(#paint19_linear_66_1677)"/>
<path fill-rule="evenodd" clip-rule="evenodd" d="M122.329 8.52295H124.829V26.493H122.329V8.52295ZM123.4 9.58004V25.436H123.757V9.58004H123.4Z" fill="url(#paint20_linear_66_1677)"/>
<path d="M143.483 23.2959C142.091 24.3644 140.312 24.9586 138.491 24.9586L138.434 24.9407C134.082 24.9407 130.567 21.6815 130.567 17.6642C130.567 13.638 134.082 10.3877 138.434 10.3877C140.18 10.3877 141.902 10.9332 143.276 11.9262L144.053 11.004C142.443 9.83777 140.453 9.22144 138.41 9.22144C134.379 9.22144 130.83 11.6558 129.678 15.2299C128.52 18.8039 130.026 22.6527 133.381 24.7147C136.741 26.7766 141.173 26.577 144.293 24.2181L143.483 23.2959Z" fill="url(#paint21_linear_66_1677)"/>
<path fill-rule="evenodd" clip-rule="evenodd" d="M129.17 15.0705C130.399 11.2585 134.168 8.69409 138.413 8.69409C140.563 8.69409 142.665 9.34275 144.372 10.5792L144.83 10.9113L143.368 12.6478L142.962 12.3537C141.682 11.4292 140.072 10.9173 138.437 10.9173C134.347 10.9173 131.105 13.9626 131.105 17.6654C131.105 21.3595 134.348 24.4134 138.437 24.4134H138.52L138.575 24.4308C140.252 24.4132 141.882 23.8581 143.156 22.8799L143.558 22.5719L145.072 24.2974L144.62 24.6387C141.322 27.133 136.647 27.3414 133.1 25.1647C129.549 22.9822 127.933 18.8881 129.17 15.0705ZM138.413 9.7511C134.593 9.7511 131.266 12.0552 130.191 15.3912C129.112 18.7213 130.507 22.3255 133.665 24.2671C136.675 26.1138 140.599 26.0374 143.505 24.1269L143.403 24.0102C141.984 24.9656 140.256 25.4883 138.493 25.4883H138.409L138.351 25.4701C133.775 25.4279 130.034 21.979 130.034 17.6654C130.034 13.3156 133.822 9.86032 138.437 9.86032C140.121 9.86032 141.787 10.3373 143.179 11.219L143.267 11.1138C141.844 10.2227 140.151 9.7511 138.413 9.7511Z" fill="url(#paint22_linear_66_1677)"/>
<path d="M156.479 9.77002L149.295 25.9784H150.611L152.152 22.2106H160.751L162.266 25.9784H163.581L156.479 9.77002ZM152.643 21.0084L156.479 13.0212L160.26 21.0084H152.643Z" fill="url(#paint23_linear_66_1677)"/>
<path fill-rule="evenodd" clip-rule="evenodd" d="M156.481 8.44458L164.396 26.507H161.902L160.387 22.7393H152.514L150.972 26.507H148.476L156.481 8.44458ZM150.114 25.45H150.249L151.791 21.6823H161.115L161.052 21.537H151.848L150.114 25.45ZM152.462 20.1532L156.482 11.7797L160.423 20.1033L156.476 11.0957L152.462 20.1532ZM161.116 21.683L162.629 25.45H162.766L161.116 21.683ZM153.49 20.48H159.419L156.476 14.2631L153.49 20.48Z" fill="url(#paint24_linear_66_1677)"/>
<path d="M0.55788 24.4967C1.05148 24.2636 1.63198 24.4674 1.86705 24.9586C2.0994 25.4446 1.88188 26.0251 1.38909 26.2513C0.909526 26.4715 0.325788 26.2654 0.0950423 25.7851C-0.136779 25.3028 0.0699423 24.7274 0.55788 24.4967Z" fill="url(#paint25_linear_66_1677)"/>
<path d="M3.62651 24.1039C3.84618 24.5533 3.6365 25.076 3.20604 25.275C2.77668 25.4734 2.24124 25.2977 2.02912 24.8473C1.82969 24.424 2.01617 23.902 2.44851 23.6956C2.88598 23.4868 3.41547 23.6703 3.62651 24.1039Z" fill="url(#paint26_linear_66_1677)"/>
<path d="M2.69759 22.2812C2.90431 22.7043 2.72727 23.2109 2.30195 23.4133C1.87662 23.6157 1.36575 23.4376 1.1593 23.0151C0.956623 22.6003 1.13771 22.0913 1.55952 21.8899C1.98215 21.6883 2.4941 21.8643 2.69759 22.2812Z" fill="url(#paint27_linear_66_1677)"/>
<path d="M4.49519 25.9552C4.69976 26.3755 4.52055 26.8831 4.09685 27.0836C3.67153 27.2847 3.16012 27.1074 2.95636 26.6884C2.75234 26.2689 2.93154 25.7616 3.35524 25.56C3.78029 25.3577 4.29035 25.5347 4.49519 25.9552Z" fill="url(#paint28_linear_66_1677)"/>
<path d="M4.28672 22.926C4.64565 22.7468 5.13466 22.8726 5.33599 23.2897C5.53543 23.7022 5.33437 24.1524 4.97193 24.3235C4.57414 24.5112 4.11076 24.3527 3.91915 23.9606C3.73051 23.5746 3.89405 23.1137 4.28672 22.926Z" fill="url(#paint29_linear_66_1677)"/>
<path d="M4.42024 21.4655C4.60295 21.8367 4.44588 22.2865 4.07102 22.467C3.69643 22.6473 3.23737 22.4903 3.05791 22.121C2.87656 21.7474 3.03308 21.3 3.40821 21.1194C3.78414 20.9387 4.23726 21.0938 4.42024 21.4655Z" fill="url(#paint30_linear_66_1677)"/>
<path d="M5.19677 24.7811C5.5746 24.6011 6.02716 24.7592 6.2091 25.1346C6.38826 25.5042 6.22825 25.9533 5.85394 26.1311C5.47744 26.31 5.02486 26.1535 4.84243 25.7816C4.66107 25.4115 4.82084 24.9597 5.19677 24.7811Z" fill="url(#paint31_linear_66_1677)"/>
<path d="M3.49122 19.6484C3.66988 20.0059 3.51605 20.4336 3.15469 20.6104C2.79333 20.7832 2.35693 20.635 2.18233 20.2774C2.00772 19.9196 2.1575 19.4881 2.51481 19.3154C2.88481 19.1384 3.31256 19.2866 3.49122 19.6484Z" fill="#001922"/>
<path d="M3.15469 20.6103C2.79333 20.7831 2.35693 20.6349 2.18233 20.2774C2.00772 19.9196 2.1575 19.4881 2.51481 19.3153C2.88454 19.1385 3.31256 19.2865 3.49121 19.6482C3.66988 20.006 3.51632 20.4336 3.15469 20.6103Z" fill="url(#paint32_linear_66_1677)"/>
<path d="M5.83384 23.0477C5.66925 22.7116 5.81284 22.3031 6.15343 22.1383C6.49288 21.9738 6.90983 22.1172 7.07555 22.4552C7.24261 22.7959 7.0985 23.2004 6.75042 23.3674C6.41059 23.5302 6.00013 23.3871 5.83384 23.0477Z" fill="url(#paint33_linear_66_1677)"/>
<path d="M4.96813 21.1955C4.80972 20.8708 4.94709 20.4821 5.27606 20.325C5.60504 20.1678 5.99824 20.3055 6.15747 20.6337C6.31484 20.9573 6.17583 21.3469 5.84688 21.5037C5.51977 21.6598 5.12737 21.5221 4.96813 21.1955Z" fill="url(#paint34_linear_66_1677)"/>
<path d="M5.27048 19.3695C5.23297 19.5628 5.10856 19.7354 4.91317 19.8299C4.585 19.9821 4.19017 19.8465 4.0323 19.5215C3.98669 19.4352 3.96591 19.3408 3.96591 19.2502C3.96186 19.0034 4.09896 18.7651 4.33995 18.65C4.66812 18.4937 5.06295 18.6294 5.22082 18.9584C5.28721 19.09 5.29962 19.2339 5.27048 19.3695Z" fill="#001922"/>
<path d="M5.27048 19.3695C5.23297 19.5628 5.10856 19.7354 4.91317 19.8299C4.585 19.9821 4.19017 19.8465 4.0323 19.5215C3.98669 19.4352 3.96591 19.3408 3.96591 19.2502C3.96186 19.0034 4.09896 18.7651 4.33995 18.65C4.66812 18.4937 5.06295 18.6294 5.22082 18.9584C5.28721 19.09 5.29962 19.2339 5.27048 19.3695Z" fill="#001922"/>
<path d="M7.68764 20.7471C7.35948 20.9033 6.96868 20.7677 6.80671 20.4387C6.64889 20.114 6.78591 19.7276 7.11414 19.5672C7.12243 19.5632 7.1265 19.5589 7.13487 19.5589H7.13893C7.41719 19.4398 7.73323 19.5218 7.91186 19.7479H7.91592C7.94916 19.785 7.97419 19.8302 7.99898 19.8753C8.15313 20.2002 8.01603 20.5907 7.68764 20.7471Z" fill="#001922"/>
<path d="M7.68764 20.7471C7.35948 20.9033 6.96868 20.7677 6.80671 20.4387C6.64889 20.114 6.78591 19.7276 7.11414 19.5672C7.12243 19.5632 7.1265 19.5589 7.13487 19.5589H7.13893C7.41719 19.4398 7.73323 19.5218 7.91186 19.7479H7.91592C7.94916 19.785 7.97419 19.8302 7.99898 19.8753C8.15313 20.2002 8.01603 20.5907 7.68764 20.7471Z" fill="url(#paint35_linear_66_1677)"/>
<path d="M6.75618 24.863C6.5978 24.5356 6.73944 24.1501 7.07653 23.9909C7.39847 23.839 7.79174 23.9821 7.94885 24.3081C8.10316 24.6283 7.96311 25.0211 7.64062 25.173C7.30592 25.3305 6.91623 25.1938 6.75618 24.863Z" fill="url(#paint36_linear_66_1677)"/>
<path d="M8.02756 21.3445C8.32008 21.204 8.67199 21.3258 8.81427 21.6166C8.95806 21.9108 8.83523 22.2572 8.53649 22.4C8.24341 22.5398 7.89126 22.4181 7.74954 22.1279C7.60574 21.8339 7.72849 21.4879 8.02756 21.3445Z" fill="url(#paint37_linear_66_1677)"/>
<path d="M9.66512 20.1748C9.65675 20.1871 9.65269 20.1992 9.64838 20.2118C9.64001 20.2078 9.63165 20.2078 9.62351 20.2036C9.59442 20.2324 9.5572 20.2529 9.51966 20.2692C9.22872 20.4089 8.88415 20.3144 8.70114 20.0636C8.67627 20.0308 8.65555 19.9979 8.63873 19.9609C8.48091 19.6361 8.618 19.2498 8.94624 19.0936C9.27862 18.9334 9.66919 19.073 9.83115 19.402C9.86025 19.4676 9.88105 19.5336 9.88504 19.5953C9.91851 19.809 9.83538 20.0308 9.66512 20.1748Z" fill="#001922"/>
<path d="M8.98943 19.1497C9.28203 19.0092 9.63394 19.131 9.77614 19.4217C9.92001 19.716 9.79718 20.0623 9.49844 20.2052C9.20536 20.3451 8.85321 20.2233 8.71149 19.9331C8.56762 19.6391 8.69045 19.2933 8.98943 19.1497Z" fill="#001922"/>
<path d="M5.27048 19.3695C5.23297 19.5628 5.10856 19.7354 4.91317 19.8299C4.585 19.9821 4.19017 19.8465 4.0323 19.5215C3.98669 19.4352 3.96591 19.3408 3.96591 19.2502C3.96186 19.0034 4.09896 18.7651 4.33995 18.65C4.66812 18.4937 5.06295 18.6294 5.22082 18.9584C5.28721 19.09 5.29962 19.2339 5.27048 19.3695Z" fill="url(#paint38_linear_66_1677)"/>
<path d="M9.66512 20.1748C9.65269 20.1871 9.64033 20.1952 9.62351 20.2036C9.59442 20.2324 9.5572 20.2529 9.51966 20.2692C9.22872 20.4089 8.88415 20.3144 8.70114 20.0636C8.67627 20.0308 8.65555 19.9979 8.63873 19.9609C8.48091 19.6361 8.618 19.2498 8.94624 19.0936C9.27862 18.9334 9.66919 19.073 9.83115 19.402C9.86025 19.4676 9.88105 19.5336 9.88504 19.5953C9.91851 19.809 9.83538 20.0308 9.66512 20.1748Z" fill="url(#paint39_linear_66_1677)"/>
<path d="M14.0231 40.6375C13.1289 40.9275 12.1621 41.0725 11.1229 41.0725C7.49764 41.0725 5.68501 39.272 5.68501 35.6709C5.68501 32.2631 7.49764 30.5593 11.1229 30.5593C12.1621 30.5593 13.1289 30.7043 14.0231 30.9943V32.1544C13.1289 31.816 12.2105 31.6468 11.2679 31.6468C8.4402 31.6468 7.02635 32.9882 7.02635 35.6709C7.02635 38.5469 8.4402 39.9849 11.2679 39.9849C12.2105 39.9849 13.1289 39.8158 14.0231 39.4774V40.6375ZM19.4514 37.1645C19.4514 38.9964 20.2127 39.9124 21.7353 39.9124C23.2579 39.9124 24.0192 38.9964 24.0192 37.1645C24.0192 35.3712 23.2579 34.4745 21.7353 34.4745C20.2127 34.4745 19.4514 35.3712 19.4514 37.1645ZM18.1101 37.1935C18.1101 34.6558 19.3185 33.387 21.7353 33.387C24.1521 33.387 25.3606 34.6558 25.3606 37.1935C25.3606 39.7263 24.1521 40.9927 21.7353 40.9927C19.3281 40.9927 18.1197 39.7263 18.1101 37.1935ZM29.549 41V33.387H30.4553L30.6946 34.3585C31.4728 33.7108 32.3284 33.387 33.2613 33.387C35.1609 33.387 36.1107 34.332 36.1107 36.2219V41H34.7694V36.2002C34.7694 35.0691 34.2063 34.5035 33.08 34.5035C32.3115 34.5035 31.5816 34.825 30.8904 35.4679V41H29.549ZM40.5965 40.6375V39.4774C41.4907 39.7674 42.3946 39.9124 43.3082 39.9124C44.5214 39.9124 45.128 39.5499 45.128 38.8248C45.128 38.1481 44.7051 37.8098 43.8592 37.8098H42.7716C41.1282 37.8098 40.3065 37.0606 40.3065 35.5621C40.3065 34.112 41.3626 33.387 43.4749 33.387C44.3837 33.387 45.2851 33.5078 46.1794 33.7495V34.9096C45.2851 34.6196 44.3837 34.4745 43.4749 34.4745C42.2085 34.4745 41.5753 34.8371 41.5753 35.5621C41.5753 36.2388 41.9741 36.5772 42.7716 36.5772H43.8592C45.5993 36.5772 46.4694 37.3264 46.4694 38.8248C46.4694 40.2749 45.4157 41 43.3082 41C42.3946 41 41.4907 40.8792 40.5965 40.6375ZM57.2196 33.387V41H56.2988L56.0667 40.0284C55.1435 40.6761 54.2154 41 53.2825 41C51.5328 41 50.6579 40.055 50.6579 38.1651V33.387H51.9992V38.1868C51.9992 39.3179 52.5599 39.8834 53.6813 39.8834C54.4499 39.8834 55.1822 39.562 55.8782 38.9191V33.387H57.2196ZM63.1917 30.6318V41H61.8503V30.6318H63.1917ZM67.8224 32.1544H68.6635L68.9535 33.387H71.0126V34.4745H69.1638V38.8466C69.1638 39.5571 69.4707 39.9124 70.0846 39.9124H71.0126V41H69.7366C68.4605 41 67.8224 40.316 67.8224 38.9481V32.1544ZM76.586 33.387V41H75.2446V33.387H76.586ZM76.586 30.6318V31.9006H75.2446V30.6318H76.586ZM81.2892 41V33.387H82.1955L82.4348 34.3585C83.213 33.7108 84.0686 33.387 85.0015 33.387C86.9011 33.387 87.8509 34.332 87.8509 36.2219V41H86.5096V36.2002C86.5096 35.0691 85.9465 34.5035 84.8202 34.5035C84.0517 34.5035 83.3218 34.825 82.6306 35.4679V41H81.2892ZM97.499 34.6776C97.0398 34.5616 96.4719 34.5035 95.7952 34.5035C94.1759 34.5035 93.3662 35.3809 93.3662 37.1355C93.3662 38.9384 94.1324 39.8399 95.6646 39.8399C96.3607 39.8399 96.9722 39.7094 97.499 39.4484V34.6776ZM98.8404 41C98.8404 42.8368 97.673 43.7552 95.3384 43.7552C94.4006 43.7552 93.5693 43.6344 92.8442 43.3927V42.3051C93.5838 42.5468 94.42 42.6676 95.3529 42.6676C96.7836 42.6676 97.499 42.1117 97.499 41V40.6375C96.9287 40.8792 96.3148 41 95.6574 41C93.2502 41 92.0466 39.7167 92.0466 37.15C92.0466 34.6413 93.3155 33.387 95.8532 33.387C96.8827 33.387 97.8785 33.4909 98.8404 33.6987V41ZM117.375 40.594C116.539 40.913 115.638 41.0725 114.671 41.0725C110.915 41.0725 109.037 39.272 109.037 35.6709C109.037 32.2631 110.85 30.5593 114.475 30.5593C115.514 30.5593 116.481 30.7043 117.375 30.9943V32.1544C116.481 31.816 115.563 31.6468 114.62 31.6468C111.792 31.6468 110.379 32.9882 110.379 35.6709C110.379 38.5469 111.771 39.9849 114.555 39.9849C115 39.9849 115.493 39.9269 116.034 39.8109V36.2872H117.375V40.594ZM121.825 41V33.387H122.731L122.97 34.3585C123.637 33.7108 124.44 33.387 125.378 33.387V34.5035C124.469 34.5035 123.732 34.825 123.166 35.4679V41H121.825ZM130.081 37.1645C130.081 38.9964 130.842 39.9124 132.365 39.9124C133.887 39.9124 134.649 38.9964 134.649 37.1645C134.649 35.3712 133.887 34.4745 132.365 34.4745C130.842 34.4745 130.081 35.3712 130.081 37.1645ZM128.739 37.1935C128.739 34.6558 129.948 33.387 132.365 33.387C134.782 33.387 135.99 34.6558 135.99 37.1935C135.99 39.7263 134.782 40.9927 132.365 40.9927C129.958 40.9927 128.749 39.7263 128.739 37.1935ZM146.74 33.387V41H145.819L145.587 40.0284C144.664 40.6761 143.736 41 142.803 41C141.053 41 140.178 40.055 140.178 38.1651V33.387H141.52V38.1868C141.52 39.3179 142.08 39.8834 143.202 39.8834C143.97 39.8834 144.703 39.562 145.399 38.9191V33.387H146.74ZM152.64 39.4484C153.167 39.7094 153.754 39.8399 154.402 39.8399C155.982 39.8399 156.772 38.8901 156.772 36.9905C156.772 35.3325 155.987 34.5035 154.416 34.5035C153.739 34.5035 153.147 34.5616 152.64 34.6776V39.4484ZM151.298 33.6987C152.309 33.4909 153.353 33.387 154.431 33.387C156.872 33.387 158.092 34.593 158.092 37.005C158.092 39.6683 156.864 41 154.409 41C153.8 41 153.21 40.8792 152.64 40.6375V43.7552H151.298V33.6987Z" fill="black"/>
<defs>
<linearGradient id="paint0_linear_66_1677" x1="4.28623" y1="19.8578" x2="4.85241" y2="18.7548" gradientUnits="userSpaceOnUse">
<stop stop-color="#282560"/>
<stop offset="0.9926" stop-color="#2799D5"/>
<stop offset="1" stop-color="#2799D5"/>
</linearGradient>
<linearGradient id="paint1_linear_66_1677" x1="0.656927" y1="24.867" x2="9.47162" y2="7.69753" gradientUnits="userSpaceOnUse">
<stop stop-color="#282560"/>
<stop offset="0.9926" stop-color="#2799D5"/>
<stop offset="1" stop-color="#2799D5"/>
</linearGradient>
<linearGradient id="paint2_linear_66_1677" x1="8.78061" y1="20.6305" x2="9.04744" y2="20.0094" gradientUnits="userSpaceOnUse">
<stop stop-color="#282560"/>
<stop offset="0.9926" stop-color="#2799D5"/>
<stop offset="1" stop-color="#2799D5"/>
</linearGradient>
<linearGradient id="paint3_linear_66_1677" x1="7.46711" y1="19.7901" x2="7.51268" y2="19.684" gradientUnits="userSpaceOnUse">
<stop stop-color="#282560"/>
<stop offset="0.9926" stop-color="#2799D5"/>
<stop offset="1" stop-color="#2799D5"/>
</linearGradient>
<linearGradient id="paint4_linear_66_1677" x1="5.25893" y1="25.1144" x2="8.3037" y2="18.0246" gradientUnits="userSpaceOnUse">
<stop stop-color="#282560"/>
<stop offset="0.9926" stop-color="#2799D5"/>
<stop offset="1" stop-color="#2799D5"/>
</linearGradient>
<linearGradient id="paint5_linear_66_1677" x1="19.1598" y1="12.8636" x2="37.5044" y2="11.2172" gradientUnits="userSpaceOnUse">
<stop stop-color="#282560"/>
<stop offset="0.9926" stop-color="#2799D5"/>
<stop offset="1" stop-color="#2799D5"/>
</linearGradient>
<linearGradient id="paint6_linear_66_1677" x1="19.9223" y1="13.407" x2="32.2619" y2="12.2995" gradientUnits="userSpaceOnUse">
<stop stop-color="#282560"/>
<stop offset="0.9926" stop-color="#2799D5"/>
<stop offset="1" stop-color="#2799D5"/>
</linearGradient>
<linearGradient id="paint7_linear_66_1677" x1="7.55452" y1="15.9685" x2="25.5914" y2="14.3497" gradientUnits="userSpaceOnUse">
<stop stop-color="#282560"/>
<stop offset="0.9926" stop-color="#2799D5"/>
<stop offset="1" stop-color="#2799D5"/>
</linearGradient>
<linearGradient id="paint8_linear_66_1677" x1="8.22351" y1="15.9582" x2="19.772" y2="14.9218" gradientUnits="userSpaceOnUse">
<stop stop-color="#282560"/>
<stop offset="0.9926" stop-color="#2799D5"/>
<stop offset="1" stop-color="#2799D5"/>
</linearGradient>
<linearGradient id="paint9_linear_66_1677" x1="42.8603" y1="28.1567" x2="42.8603" y2="11.9317" gradientUnits="userSpaceOnUse">
<stop stop-color="#282560"/>
<stop offset="0.9926" stop-color="#2799D5"/>
<stop offset="1" stop-color="#2799D5"/>
</linearGradient>
<linearGradient id="paint10_linear_66_1677" x1="42.8578" y1="9.22259" x2="42.8578" y2="26.1356" gradientUnits="userSpaceOnUse">
<stop offset="0.151042" stop-color="#289AD6"/>
<stop offset="0.947917" stop-color="#293A75"/>
</linearGradient>
<linearGradient id="paint11_linear_66_1677" x1="60.7226" y1="28.2758" x2="60.7226" y2="11.521" gradientUnits="userSpaceOnUse">
<stop stop-color="#282560"/>
<stop offset="0.9926" stop-color="#2799D5"/>
<stop offset="1" stop-color="#2799D5"/>
</linearGradient>
<linearGradient id="paint12_linear_66_1677" x1="60.72" y1="8.51688" x2="60.72" y2="26.1346" gradientUnits="userSpaceOnUse">
<stop offset="0.151042" stop-color="#289AD6"/>
<stop offset="0.947917" stop-color="#293A75"/>
</linearGradient>
<linearGradient id="paint13_linear_66_1677" x1="78.2237" y1="28.1698" x2="78.2237" y2="11.8958" gradientUnits="userSpaceOnUse">
<stop stop-color="#282560"/>
<stop offset="0.9926" stop-color="#2799D5"/>
<stop offset="1" stop-color="#2799D5"/>
</linearGradient>
<linearGradient id="paint14_linear_66_1677" x1="78.2213" y1="9.22563" x2="78.2213" y2="26.1387" gradientUnits="userSpaceOnUse">
<stop offset="0.151042" stop-color="#289AD6"/>
<stop offset="0.947917" stop-color="#293A75"/>
</linearGradient>
<linearGradient id="paint15_linear_66_1677" x1="95.3641" y1="28.1668" x2="95.3641" y2="11.5036" gradientUnits="userSpaceOnUse">
<stop stop-color="#282560"/>
<stop offset="0.9926" stop-color="#2799D5"/>
<stop offset="1" stop-color="#2799D5"/>
</linearGradient>
<linearGradient id="paint16_linear_66_1677" x1="95.3648" y1="8.51751" x2="95.3648" y2="26.1353" gradientUnits="userSpaceOnUse">
<stop offset="0.151042" stop-color="#289AD6"/>
<stop offset="0.947917" stop-color="#293A75"/>
</linearGradient>
<linearGradient id="paint17_linear_66_1677" x1="112.15" y1="28.2178" x2="112.15" y2="11.9186" gradientUnits="userSpaceOnUse">
<stop stop-color="#282560"/>
<stop offset="0.9926" stop-color="#2799D5"/>
<stop offset="1" stop-color="#2799D5"/>
</linearGradient>
<linearGradient id="paint18_linear_66_1677" x1="112.147" y1="9.22319" x2="112.147" y2="26.1362" gradientUnits="userSpaceOnUse">
<stop offset="0.151042" stop-color="#289AD6"/>
<stop offset="0.947917" stop-color="#293A75"/>
</linearGradient>
<linearGradient id="paint19_linear_66_1677" x1="123.581" y1="28.2162" x2="123.581" y2="11.9423" gradientUnits="userSpaceOnUse">
<stop stop-color="#282560"/>
<stop offset="0.9926" stop-color="#2799D5"/>
<stop offset="1" stop-color="#2799D5"/>
</linearGradient>
<linearGradient id="paint20_linear_66_1677" x1="123.579" y1="9.225" x2="123.579" y2="26.138" gradientUnits="userSpaceOnUse">
<stop offset="0.151042" stop-color="#289AD6"/>
<stop offset="0.947917" stop-color="#293A75"/>
</linearGradient>
<linearGradient id="paint21_linear_66_1677" x1="136.792" y1="28.186" x2="136.792" y2="11.9136" gradientUnits="userSpaceOnUse">
<stop stop-color="#282560"/>
<stop offset="0.9926" stop-color="#2799D5"/>
<stop offset="1" stop-color="#2799D5"/>
</linearGradient>
<linearGradient id="paint22_linear_66_1677" x1="136.794" y1="9.2226" x2="136.794" y2="26.1357" gradientUnits="userSpaceOnUse">
<stop offset="0.151042" stop-color="#289AD6"/>
<stop offset="0.947917" stop-color="#293A75"/>
</linearGradient>
<linearGradient id="paint23_linear_66_1677" x1="156.438" y1="28.2816" x2="156.438" y2="11.501" gradientUnits="userSpaceOnUse">
<stop stop-color="#282560"/>
<stop offset="0.9926" stop-color="#2799D5"/>
<stop offset="1" stop-color="#2799D5"/>
</linearGradient>
<linearGradient id="paint24_linear_66_1677" x1="156.438" y1="8.51968" x2="156.438" y2="26.1374" gradientUnits="userSpaceOnUse">
<stop offset="0.151042" stop-color="#289AD6"/>
<stop offset="0.947917" stop-color="#293A75"/>
</linearGradient>
<linearGradient id="paint25_linear_66_1677" x1="4.65093" y1="16.0676" x2="-0.0425512" y2="28.2172" gradientUnits="userSpaceOnUse">
<stop stop-color="#282560"/>
<stop offset="0.9926" stop-color="#2799D5"/>
<stop offset="1" stop-color="#2799D5"/>
</linearGradient>
<linearGradient id="paint26_linear_66_1677" x1="5.95514" y1="16.5696" x2="1.26164" y2="28.7192" gradientUnits="userSpaceOnUse">
<stop stop-color="#282560"/>
<stop offset="0.9926" stop-color="#2799D5"/>
<stop offset="1" stop-color="#2799D5"/>
</linearGradient>
<linearGradient id="paint27_linear_66_1677" x1="4.54501" y1="16.0275" x2="-0.148486" y2="28.177" gradientUnits="userSpaceOnUse">
<stop stop-color="#282560"/>
<stop offset="0.9926" stop-color="#2799D5"/>
<stop offset="1" stop-color="#2799D5"/>
</linearGradient>
<linearGradient id="paint28_linear_66_1677" x1="2.15065" y1="29.9291" x2="5.05607" y2="23.1339" gradientUnits="userSpaceOnUse">
<stop stop-color="#282560"/>
<stop offset="0.9926" stop-color="#2799D5"/>
<stop offset="1" stop-color="#2799D5"/>
</linearGradient>
<linearGradient id="paint29_linear_66_1677" x1="1.9173" y1="29.8302" x2="4.82275" y2="23.0351" gradientUnits="userSpaceOnUse">
<stop stop-color="#282560"/>
<stop offset="0.9926" stop-color="#2799D5"/>
<stop offset="1" stop-color="#2799D5"/>
</linearGradient>
<linearGradient id="paint30_linear_66_1677" x1="5.81999" y1="16.5211" x2="1.12652" y2="28.6708" gradientUnits="userSpaceOnUse">
<stop stop-color="#282560"/>
<stop offset="0.9926" stop-color="#2799D5"/>
<stop offset="1" stop-color="#2799D5"/>
</linearGradient>
<linearGradient id="paint31_linear_66_1677" x1="3.34853" y1="30.4392" x2="6.25398" y2="23.644" gradientUnits="userSpaceOnUse">
<stop stop-color="#282560"/>
<stop offset="0.9926" stop-color="#2799D5"/>
<stop offset="1" stop-color="#2799D5"/>
</linearGradient>
<linearGradient id="paint32_linear_66_1677" x1="4.41017" y1="15.9766" x2="-0.287118" y2="28.1361" gradientUnits="userSpaceOnUse">
<stop stop-color="#282560"/>
<stop offset="0.9926" stop-color="#2799D5"/>
<stop offset="1" stop-color="#2799D5"/>
</linearGradient>
<linearGradient id="paint33_linear_66_1677" x1="3.13618" y1="30.3511" x2="6.04158" y2="23.5559" gradientUnits="userSpaceOnUse">
<stop stop-color="#282560"/>
<stop offset="0.9926" stop-color="#2799D5"/>
<stop offset="1" stop-color="#2799D5"/>
</linearGradient>
<linearGradient id="paint34_linear_66_1677" x1="7.10196" y1="17.0117" x2="2.40847" y2="29.1614" gradientUnits="userSpaceOnUse">
<stop stop-color="#282560"/>
<stop offset="0.9926" stop-color="#2799D5"/>
<stop offset="1" stop-color="#2799D5"/>
</linearGradient>
<linearGradient id="paint35_linear_66_1677" x1="2.977" y1="30.2867" x2="5.88331" y2="23.4893" gradientUnits="userSpaceOnUse">
<stop stop-color="#282560"/>
<stop offset="0.9926" stop-color="#2799D5"/>
<stop offset="1" stop-color="#2799D5"/>
</linearGradient>
<linearGradient id="paint36_linear_66_1677" x1="4.56636" y1="30.9618" x2="7.47178" y2="24.1667" gradientUnits="userSpaceOnUse">
<stop stop-color="#282560"/>
<stop offset="0.9926" stop-color="#2799D5"/>
<stop offset="1" stop-color="#2799D5"/>
</linearGradient>
<linearGradient id="paint37_linear_66_1677" x1="4.35415" y1="30.8645" x2="7.25956" y2="24.0695" gradientUnits="userSpaceOnUse">
<stop stop-color="#282560"/>
<stop offset="0.9926" stop-color="#2799D5"/>
<stop offset="1" stop-color="#2799D5"/>
</linearGradient>
<linearGradient id="paint38_linear_66_1677" x1="6.16468" y1="15.3389" x2="1.47449" y2="27.4798" gradientUnits="userSpaceOnUse">
<stop stop-color="#282560"/>
<stop offset="0.9926" stop-color="#2799D5"/>
<stop offset="1" stop-color="#2799D5"/>
</linearGradient>
<linearGradient id="paint39_linear_66_1677" x1="10.7731" y1="15.7793" x2="6.08118" y2="27.925" gradientUnits="userSpaceOnUse">
<stop stop-color="#282560"/>
<stop offset="0.9926" stop-color="#2799D5"/>
<stop offset="1" stop-color="#2799D5"/>
</linearGradient>
</defs>
</svg>
