<svg width="139" height="59" viewBox="0 0 139 59" fill="none" xmlns="http://www.w3.org/2000/svg">
<path d="M26.9894 41.2011L26.9911 41.1994C28.804 39.4438 30.0137 37.3508 30.614 34.9279C30.851 33.9712 30.9612 33.0067 31.0126 32.0498C31.1135 30.1718 29.5444 28.6797 27.7102 28.6797H18.2624C16.8366 28.6797 15.6808 29.8356 15.6808 31.2613C15.6808 32.6871 16.8366 33.843 18.2624 33.843H25.2277C24.753 35.4926 23.8263 36.8294 22.4377 37.8652C20.9367 38.9779 18.9583 39.554 16.4638 39.554C13.3668 39.554 10.8966 38.6102 9.00926 36.7498C7.14452 34.8845 6.20715 32.536 6.20715 29.6695C6.20715 26.8024 7.14499 24.4384 9.01256 22.5445C10.8768 20.6541 13.2516 19.7023 16.1744 19.7023C17.9772 19.7023 19.5949 20.1124 21.038 20.9257L21.038 20.9258L21.0435 20.9288C21.7685 21.3242 22.3997 21.7828 22.9398 22.3032C23.9622 23.2881 25.6016 23.8376 26.9639 23.0532C28.2849 22.2927 28.8235 20.5131 27.7529 19.2707C26.6625 18.0054 25.3418 16.9437 23.7951 16.0844C21.4913 14.8045 18.948 14.1669 16.1744 14.1669C11.7598 14.1669 8.03211 15.6717 5.02167 18.6822C2.04034 21.6635 0.547766 25.3215 0.547766 29.6281C0.547766 33.9614 2.03972 37.6335 5.02166 40.6155L5.02319 40.617C8.03741 43.6028 11.849 45.0894 16.4225 45.0894C20.736 45.0894 24.2729 43.8032 26.9894 41.2011Z" fill="#D2242E" stroke="#D2242E" stroke-width="0.904467" stroke-linejoin="round"/>
<path d="M53.0336 31.8735V39.2021C53.0336 40.3596 52.7712 41.2278 52.2462 41.8065C51.7213 42.3853 51.0282 42.6746 50.1668 42.6746C49.3323 42.6746 48.6526 42.3853 48.1277 41.8065C47.6162 41.2278 47.3605 40.3596 47.3605 39.2021V30.4199C47.3605 29.0336 47.3134 27.9569 47.2192 27.1897C47.125 26.4225 46.8692 25.7966 46.452 25.3121C46.0348 24.8141 45.3752 24.5651 44.4735 24.5651C42.6699 24.5651 41.4788 25.1842 40.9 26.4225C40.3347 27.6608 40.0521 29.4374 40.0521 31.7524V39.2021C40.0521 40.3462 39.7896 41.2143 39.2647 41.8065C38.7533 42.3853 38.0736 42.6746 37.2256 42.6746C36.3911 42.6746 35.7047 42.3853 35.1663 41.8065C34.6414 41.2143 34.379 40.3462 34.379 39.2021V23.4345C34.379 22.3982 34.6145 21.6108 35.0856 21.0724C35.5701 20.534 36.2027 20.2649 36.9834 20.2649C37.7371 20.2649 38.3629 20.5206 38.8609 21.032C39.3724 21.53 39.6281 22.2232 39.6281 23.1115V23.6364C40.5837 22.4924 41.6066 21.6512 42.6968 21.1128C43.787 20.5744 44.9984 20.3052 46.3309 20.3052C47.7172 20.3052 48.9083 20.5811 49.9043 21.133C50.9003 21.6848 51.7213 22.5193 52.3674 23.6364C53.2961 22.5058 54.2921 21.6714 55.3553 21.133C56.4186 20.5811 57.5963 20.3052 58.8884 20.3052C60.3959 20.3052 61.6947 20.6013 62.7849 21.1935C63.8751 21.7858 64.6894 22.6337 65.2278 23.7374C65.6988 24.7334 65.9344 26.3014 65.9344 28.4414V39.2021C65.9344 40.3596 65.6719 41.2278 65.147 41.8065C64.6221 42.3853 63.9289 42.6746 63.0675 42.6746C62.2331 42.6746 61.5466 42.3853 61.0083 41.8065C60.4834 41.2143 60.2209 40.3462 60.2209 39.2021V29.9354C60.2209 28.751 60.1671 27.8021 60.0594 27.0887C59.9652 26.3754 59.696 25.7765 59.2518 25.2919C58.8077 24.8074 58.1347 24.5651 57.2329 24.5651C56.5061 24.5651 55.813 24.7805 55.1535 25.2112C54.5074 25.6419 54.0027 26.2206 53.6393 26.9474C53.2355 27.8761 53.0336 29.5181 53.0336 31.8735ZM83.9745 39.5655C82.642 40.6019 81.3499 41.3826 80.0982 41.9075C78.8599 42.4189 77.4669 42.6746 75.9191 42.6746C74.5058 42.6746 73.2608 42.3987 72.1841 41.8469C71.1208 41.2816 70.2998 40.5212 69.721 39.5655C69.1423 38.6099 68.8529 37.5736 68.8529 36.4564C68.8529 34.949 69.3307 33.6636 70.2863 32.6003C71.2419 31.537 72.5542 30.8237 74.2232 30.4603C74.5731 30.3795 75.4412 30.1978 76.8276 29.9152C78.2139 29.6326 79.3983 29.3768 80.3808 29.148C81.3768 28.9057 82.4536 28.6164 83.6111 28.2799C83.5438 26.8263 83.2477 25.763 82.7227 25.09C82.2113 24.4036 81.1413 24.0604 79.5127 24.0604C78.1129 24.0604 77.0564 24.2555 76.343 24.6459C75.6431 25.0362 75.0375 25.6217 74.526 26.4023C74.028 27.183 73.6713 27.7011 73.456 27.9569C73.2541 28.1991 72.8099 28.3203 72.1235 28.3203C71.5044 28.3203 70.966 28.1251 70.5084 27.7348C70.0642 27.331 69.8422 26.8196 69.8422 26.2004C69.8422 25.2313 70.1854 24.2892 70.8718 23.374C71.5582 22.4587 72.6282 21.705 74.0819 21.1128C75.5355 20.5206 77.3457 20.2245 79.5127 20.2245C81.9354 20.2245 83.8399 20.5139 85.2262 21.0926C86.6125 21.6579 87.5883 22.5597 88.1536 23.7979C88.7323 25.0362 89.0217 26.6782 89.0217 28.724C89.0217 30.0161 89.015 31.1131 89.0015 32.0149C89.0015 32.9166 88.9948 33.9193 88.9813 35.023C88.9813 36.0594 89.1496 37.1429 89.4861 38.2734C89.836 39.3906 90.011 40.1106 90.011 40.4337C90.011 40.999 89.7418 41.5171 89.2034 41.9882C88.6785 42.4458 88.0796 42.6746 87.4066 42.6746C86.8413 42.6746 86.2827 42.4122 85.7309 41.8873C85.1791 41.3489 84.5936 40.575 83.9745 39.5655ZM83.6111 31.5909C82.8035 31.887 81.6258 32.2033 80.078 32.5398C78.5436 32.8628 77.4803 33.1051 76.8881 33.2666C76.2959 33.4146 75.7306 33.7175 75.1923 34.1751C74.6539 34.6192 74.3847 35.2451 74.3847 36.0527C74.3847 36.8871 74.701 37.6005 75.3336 38.1927C75.9662 38.7714 76.7939 39.0608 77.8168 39.0608C78.907 39.0608 79.9097 38.8253 80.825 38.3542C81.7537 37.8697 82.4334 37.2505 82.8641 36.4968C83.3621 35.6623 83.6111 34.2895 83.6111 32.3783V31.5909ZM92.6469 20.7494H93.2525V17.4384C93.2525 16.5501 93.2727 15.8569 93.3131 15.3589C93.3669 14.8475 93.5015 14.41 93.7169 14.0466C93.9322 13.6698 94.2418 13.3669 94.6456 13.1381C95.0493 12.8959 95.5002 12.7747 95.9982 12.7747C96.6981 12.7747 97.3307 13.0372 97.896 13.5621C98.2729 13.912 98.5084 14.3427 98.6026 14.8542C98.7103 15.3522 98.7641 16.0655 98.7641 16.9942V20.7494H100.783C101.564 20.7494 102.156 20.9378 102.56 21.3147C102.977 21.6781 103.186 22.1492 103.186 22.7279C103.186 23.4682 102.889 23.9864 102.297 24.2825C101.718 24.5786 100.884 24.7266 99.7938 24.7266H98.7641V34.8615C98.7641 35.7229 98.791 36.3891 98.8449 36.8602C98.9122 37.3178 99.0737 37.6947 99.3294 37.9908C99.5986 38.2734 100.029 38.4148 100.622 38.4148C100.945 38.4148 101.382 38.3609 101.934 38.2533C102.486 38.1321 102.916 38.0716 103.226 38.0716C103.67 38.0716 104.067 38.2533 104.417 38.6167C104.78 38.9666 104.962 39.404 104.962 39.9289C104.962 40.8173 104.478 41.497 103.509 41.968C102.539 42.4391 101.146 42.6746 99.3294 42.6746C97.6066 42.6746 96.3011 42.3853 95.4127 41.8065C94.5244 41.2278 93.939 40.4269 93.6563 39.404C93.3871 38.3811 93.2525 37.015 93.2525 35.3057V24.7266H92.5257C91.7316 24.7266 91.126 24.5382 90.7087 24.1613C90.2915 23.7845 90.0829 23.3067 90.0829 22.7279C90.0829 22.1492 90.2982 21.6781 90.7289 21.3147C91.1731 20.9378 91.8124 20.7494 92.6469 20.7494Z" fill="#23A049"/>
<path d="M48.1277 41.8065L47.6435 42.2344L47.6491 42.2405L48.1277 41.8065ZM46.452 25.3121L45.9567 25.727L45.9624 25.7337L46.452 25.3121ZM40.9 26.4225L40.3147 26.1489L40.3123 26.1542L40.9 26.4225ZM39.2647 41.8065L38.7812 41.378L38.7806 41.3787L39.2647 41.8065ZM35.1663 41.8065L34.6829 42.2351L34.688 42.2409L34.6933 42.2465L35.1663 41.8065ZM35.0856 21.0724L34.6053 20.6402L34.5994 20.647L35.0856 21.0724ZM38.8609 21.032L38.3981 21.4827L38.4041 21.4889L38.4102 21.4949L38.8609 21.032ZM39.6281 23.6364H38.9821V25.4176L40.1239 24.0506L39.6281 23.6364ZM42.6968 21.1128L42.9829 21.6921L42.6968 21.1128ZM49.9043 21.133L50.2174 20.5679L49.9043 21.133ZM52.3674 23.6364L51.8081 23.9598L52.2748 24.7669L52.8666 24.0465L52.3674 23.6364ZM55.3553 21.133L55.6472 21.7094L55.6529 21.7064L55.3553 21.133ZM62.7849 21.1935L63.0933 20.6259L62.7849 21.1935ZM65.2278 23.7374L65.8118 23.4611L65.8084 23.4541L65.2278 23.7374ZM61.0083 41.8065L60.5248 42.2351L60.5299 42.2409L60.5352 42.2465L61.0083 41.8065ZM60.0594 27.0887L59.4188 27.1733L59.4206 27.1852L60.0594 27.0887ZM55.1535 25.2112L54.8002 24.6702L54.7951 24.6736L55.1535 25.2112ZM53.6393 26.9474L53.0614 26.6585L53.0537 26.674L53.0468 26.6898L53.6393 26.9474ZM52.3876 31.8735V39.2021H53.6797V31.8735H52.3876ZM52.3876 39.2021C52.3876 40.2748 52.143 40.9587 51.7677 41.3725L52.7248 42.2405C53.3993 41.4968 53.6797 40.4445 53.6797 39.2021H52.3876ZM51.7677 41.3725C51.3786 41.8015 50.8667 42.0286 50.1668 42.0286V43.3207C51.1896 43.3207 52.0641 42.969 52.7248 42.2405L51.7677 41.3725ZM50.1668 42.0286C49.5006 42.0286 48.9996 41.8062 48.6062 41.3725L47.6491 42.2405C48.3056 42.9643 49.164 43.3207 50.1668 43.3207V42.0286ZM48.6118 41.3787C48.246 40.9648 48.0065 40.2784 48.0065 39.2021H46.7145C46.7145 40.4409 46.9864 41.4907 47.6436 42.2343L48.6118 41.3787ZM48.0065 39.2021V30.4199H46.7145V39.2021H48.0065ZM48.0065 30.4199C48.0065 29.0244 47.9594 27.917 47.8604 27.1109L46.5779 27.2684C46.6674 27.9967 46.7145 29.0428 46.7145 30.4199H48.0065ZM47.8604 27.1109C47.7539 26.2438 47.4581 25.4905 46.9416 24.8905L45.9624 25.7337C46.2803 26.1028 46.496 26.6012 46.5779 27.2684L47.8604 27.1109ZM46.9472 24.8972C46.3648 24.2021 45.4887 23.9191 44.4735 23.9191V25.2112C45.2618 25.2112 45.7047 25.4262 45.9568 25.727L46.9472 24.8972ZM44.4735 23.9191C42.5144 23.9191 41.0349 24.6082 40.3147 26.1489L41.4853 26.6961C41.9227 25.7603 42.8255 25.2112 44.4735 25.2112V23.9191ZM40.3123 26.1542C39.6906 27.516 39.406 29.4009 39.406 31.7524H40.6981C40.6981 29.4739 40.9788 27.8055 41.4877 26.6908L40.3123 26.1542ZM39.406 31.7524V39.2021H40.6981V31.7524H39.406ZM39.406 39.2021C39.406 40.2576 39.1631 40.9472 38.7812 41.378L39.7482 42.2351C40.4162 41.4814 40.6981 40.4348 40.6981 39.2021H39.406ZM38.7806 41.3787C38.4046 41.8042 37.9087 42.0286 37.2256 42.0286V43.3207C38.2384 43.3207 39.1019 42.9664 39.7488 42.2343L38.7806 41.3787ZM37.2256 42.0286C36.5593 42.0286 36.0481 41.8058 35.6394 41.3665L34.6933 42.2465C35.3614 42.9647 36.2229 43.3207 37.2256 43.3207V42.0286ZM35.6498 41.378C35.268 40.9472 35.025 40.2576 35.025 39.2021H33.7329C33.7329 40.4348 34.0149 41.4814 34.6829 42.2351L35.6498 41.378ZM35.025 39.2021V23.4345H33.7329V39.2021H35.025ZM35.025 23.4345C35.025 22.4857 35.2416 21.8752 35.5718 21.4978L34.5994 20.647C33.9874 21.3463 33.7329 22.3107 33.7329 23.4345H35.025ZM35.5658 21.5046C35.9175 21.1138 36.3698 20.9109 36.9834 20.9109V19.6188C36.0356 19.6188 35.2228 19.9543 34.6054 20.6402L35.5658 21.5046ZM36.9834 20.9109C37.5736 20.9109 38.0291 21.1038 38.3981 21.4827L39.3238 20.5813C38.6968 19.9374 37.9005 19.6188 36.9834 19.6188V20.9109ZM38.4102 21.4949C38.7677 21.843 38.9821 22.3523 38.9821 23.1115H40.2742C40.2742 22.0941 39.9771 21.2171 39.3116 20.5692L38.4102 21.4949ZM38.9821 23.1115V23.6364H40.2742V23.1115H38.9821ZM40.1239 24.0506C41.0346 22.9604 41.9894 22.1827 42.9829 21.6921L42.4108 20.5335C41.2239 21.1197 40.1329 22.0244 39.1323 23.2223L40.1239 24.0506ZM42.9829 21.6921C43.9759 21.2017 45.0879 20.9513 46.3309 20.9513V19.6592C44.9088 19.6592 43.5982 19.9471 42.4108 20.5335L42.9829 21.6921ZM46.3309 20.9513C47.6313 20.9513 48.7098 21.2097 49.5912 21.6981L50.2174 20.5679C49.1068 19.9526 47.8031 19.6592 46.3309 19.6592V20.9513ZM49.5912 21.6981C50.4716 22.1859 51.2127 22.9303 51.8081 23.9598L52.9266 23.313C52.2299 22.1083 51.329 21.1837 50.2174 20.5679L49.5912 21.6981ZM52.8666 24.0465C53.751 22.9698 54.6798 22.1992 55.6472 21.7094L55.0635 20.5566C53.9043 21.1435 52.8411 22.0419 51.8682 23.2263L52.8666 24.0465ZM55.6529 21.7064C56.6172 21.206 57.6916 20.9513 58.8884 20.9513V19.6592C57.5011 19.6592 56.2201 19.9563 55.0577 20.5596L55.6529 21.7064ZM58.8884 20.9513C60.3111 20.9513 61.4993 21.2304 62.4765 21.7612L63.0933 20.6259C61.8901 19.9723 60.4806 19.6592 58.8884 19.6592V20.9513ZM62.4765 21.7612C63.4499 22.29 64.1683 23.0391 64.6471 24.0206L65.8084 23.4541C65.2104 22.2283 64.3003 21.2815 63.0933 20.6259L62.4765 21.7612ZM64.6437 24.0136C65.0512 24.8751 65.2883 26.3234 65.2883 28.4414H66.5804C66.5804 26.2793 66.3465 24.5916 65.8118 23.4611L64.6437 24.0136ZM65.2883 28.4414V39.2021H66.5804V28.4414H65.2883ZM65.2883 39.2021C65.2883 40.2748 65.0438 40.9587 64.6685 41.3725L65.6256 42.2405C66.3001 41.4968 66.5804 40.4445 66.5804 39.2021H65.2883ZM64.6685 41.3725C64.2793 41.8015 63.7675 42.0286 63.0675 42.0286V43.3207C64.0904 43.3207 64.9648 42.969 65.6256 42.2405L64.6685 41.3725ZM63.0675 42.0286C62.4013 42.0286 61.89 41.8058 61.4813 41.3665L60.5352 42.2465C61.2033 42.9647 62.0649 43.3207 63.0675 43.3207V42.0286ZM61.4917 41.378C61.1099 40.9472 60.8669 40.2576 60.8669 39.2021H59.5748C59.5748 40.4348 59.8568 41.4814 60.5248 42.2351L61.4917 41.378ZM60.8669 39.2021V29.9354H59.5748V39.2021H60.8669ZM60.8669 29.9354C60.8669 28.7363 60.8128 27.7513 60.6982 26.9923L59.4206 27.1852C59.5214 27.8529 59.5748 28.7656 59.5748 29.9354H60.8669ZM60.6999 27.0041C60.59 26.1725 60.2703 25.4469 59.7281 24.8554L58.7756 25.7285C59.1217 26.106 59.3403 26.5783 59.4189 27.1733L60.6999 27.0041ZM59.7281 24.8554C59.1212 24.1933 58.246 23.9191 57.2329 23.9191V25.2112C58.0234 25.2112 58.4941 25.4214 58.7756 25.7285L59.7281 24.8554ZM57.2329 23.9191C56.3701 23.9191 55.5556 24.1769 54.8002 24.6702L55.5067 25.7521C56.0704 25.384 56.6421 25.2112 57.2329 25.2112V23.9191ZM54.7951 24.6736C54.0511 25.1696 53.4727 25.836 53.0614 26.6585L54.2171 27.2363C54.5327 26.6052 54.9637 26.1141 55.5118 25.7487L54.7951 24.6736ZM53.0468 26.6898C52.5845 27.7532 52.3876 29.5167 52.3876 31.8735H53.6797C53.6797 29.5196 53.8865 27.999 54.2318 27.205L53.0468 26.6898ZM83.9745 39.5655L84.5252 39.2278L84.1477 38.6123L83.5778 39.0556L83.9745 39.5655ZM80.0982 41.9075L80.3448 42.5046L80.348 42.5032L80.0982 41.9075ZM72.1841 41.8469L71.8808 42.4174L71.8894 42.4218L72.1841 41.8469ZM70.2863 32.6003L69.8058 32.1685L70.2863 32.6003ZM74.2232 30.4603L74.3606 31.0916L74.3685 31.0898L74.2232 30.4603ZM80.3808 29.148L80.5274 29.7773L80.5335 29.7758L80.3808 29.148ZM83.6111 28.2799L83.7914 28.9003L84.28 28.7582L84.2564 28.25L83.6111 28.2799ZM82.7227 25.09L82.2047 25.476L82.209 25.4817L82.2133 25.4874L82.7227 25.09ZM76.343 24.6459L76.0329 24.0791L76.0284 24.0816L76.343 24.6459ZM74.526 26.4023L73.9856 26.0482L73.9814 26.0549L74.526 26.4023ZM73.456 27.9569L72.9618 27.5407L72.9597 27.5433L73.456 27.9569ZM70.5084 27.7348L70.0738 28.2128L70.0814 28.2197L70.0892 28.2263L70.5084 27.7348ZM74.0819 21.1128L73.8381 20.5145L74.0819 21.1128ZM85.2262 21.0926L84.9773 21.6888L84.9823 21.6908L85.2262 21.0926ZM88.1536 23.7979L87.5659 24.0662L87.5683 24.0715L88.1536 23.7979ZM89.0015 32.0149L88.3555 32.0052V32.0149H89.0015ZM88.9813 35.023L88.3353 35.0151V35.023H88.9813ZM89.4861 38.2734L88.8668 38.4578L88.8696 38.4666L89.4861 38.2734ZM89.2034 41.9882L89.628 42.4752L89.6288 42.4744L89.2034 41.9882ZM85.7309 41.8873L85.2797 42.3497L85.2856 42.3554L85.7309 41.8873ZM83.6111 31.5909H84.2571V30.6659L83.3887 30.9843L83.6111 31.5909ZM80.078 32.5398L80.2111 33.172L80.2152 33.1711L80.078 32.5398ZM76.8881 33.2666L77.0449 33.8935L77.0581 33.8899L76.8881 33.2666ZM75.1923 34.1751L75.6034 34.6735L75.6107 34.6673L75.1923 34.1751ZM75.3336 38.1927L74.892 38.6643L74.8975 38.6693L75.3336 38.1927ZM80.825 38.3542L81.1206 38.9286L81.1238 38.927L80.825 38.3542ZM82.8641 36.4968L82.3092 36.1657L82.3031 36.1763L82.8641 36.4968ZM83.5778 39.0556C82.2799 40.0651 81.0366 40.8134 79.8483 41.3117L80.348 42.5032C81.6632 41.9517 83.0041 41.1387 84.3711 40.0755L83.5778 39.0556ZM79.8515 41.3103C78.7027 41.7849 77.3953 42.0286 75.9191 42.0286V43.3207C77.5385 43.3207 79.0172 43.053 80.3448 42.5046L79.8515 41.3103ZM75.9191 42.0286C74.5911 42.0286 73.4501 41.7698 72.4787 41.272L71.8894 42.4218C73.0715 43.0277 74.4206 43.3207 75.9191 43.3207V42.0286ZM72.4874 41.2765C71.5186 40.7614 70.7874 40.0791 70.2736 39.2309L69.1684 39.9002C69.8122 40.9632 70.723 41.8018 71.8808 42.4173L72.4874 41.2765ZM70.2736 39.2309C69.756 38.3762 69.499 37.4556 69.499 36.4564H68.2069C68.2069 37.6916 68.5286 38.8437 69.1684 39.9002L70.2736 39.2309ZM69.499 36.4564C69.499 35.0989 69.924 33.97 70.7668 33.0322L69.8058 32.1685C68.7374 33.3572 68.2069 34.799 68.2069 36.4564H69.499ZM70.7668 33.0322C71.6153 32.0881 72.7977 31.4319 74.3606 31.0916L74.0857 29.829C72.3108 30.2155 70.8686 30.986 69.8058 32.1685L70.7668 33.0322ZM74.3685 31.0898C74.7085 31.0113 75.5674 30.8315 76.9566 30.5482L76.6985 29.2822C75.3151 29.5642 74.4377 29.7478 74.0779 29.8308L74.3685 31.0898ZM76.9566 30.5482C78.3467 30.2648 79.5372 30.0078 80.5274 29.7772L80.2343 28.5188C79.2593 28.7458 78.0811 29.0003 76.6985 29.2822L76.9566 30.5482ZM80.5335 29.7758C81.5402 29.5309 82.6263 29.239 83.7914 28.9003L83.4307 27.6595C82.2808 27.9938 81.2134 28.2806 80.2281 28.5203L80.5335 29.7758ZM84.2564 28.25C84.1868 26.7471 83.8793 25.5224 83.2322 24.6927L82.2133 25.4874C82.616 26.0036 82.9007 26.9054 82.9657 28.3098L84.2564 28.25ZM83.2408 24.704C82.5323 23.7532 81.1737 23.4143 79.5127 23.4143V24.7064C81.1088 24.7064 81.8902 25.054 82.2047 25.476L83.2408 24.704ZM79.5127 23.4143C78.0726 23.4143 76.8871 23.6117 76.0329 24.0791L76.6531 25.2126C77.2256 24.8994 78.1532 24.7064 79.5127 24.7064V23.4143ZM76.0284 24.0816C75.2234 24.5305 74.5448 25.1948 73.9856 26.0483L75.0664 26.7564C75.5301 26.0486 76.0628 25.5418 76.6577 25.2101L76.0284 24.0816ZM73.9814 26.0549C73.4809 26.8394 73.1456 27.3224 72.9618 27.5407L73.9502 28.373C74.197 28.0798 74.5752 27.5265 75.0707 26.7498L73.9814 26.0549ZM72.9597 27.5433C72.9743 27.5258 72.9518 27.5651 72.8015 27.6061C72.6547 27.6462 72.4345 27.6742 72.1235 27.6742V28.9663C72.499 28.9663 72.844 28.9338 73.1414 28.8527C73.4353 28.7726 73.7359 28.6302 73.9523 28.3705L72.9597 27.5433ZM72.1235 27.6742C71.6531 27.6742 71.2646 27.5307 70.9277 27.2432L70.0892 28.2263C70.6674 28.7195 71.3556 28.9663 72.1235 28.9663V27.6742ZM70.943 27.2567C70.6382 26.9797 70.4882 26.644 70.4882 26.2004H69.1961C69.1961 26.9951 69.4902 27.6823 70.0738 28.2128L70.943 27.2567ZM70.4882 26.2004C70.4882 25.3951 70.7704 24.5859 71.3886 23.7616L70.355 22.9863C69.6003 23.9925 69.1961 25.0675 69.1961 26.2004H70.4882ZM71.3886 23.7616C71.9834 22.9686 72.9417 22.2749 74.3256 21.7111L73.8381 20.5145C72.3148 21.1351 71.1331 21.9488 70.355 22.9863L71.3886 23.7616ZM74.3256 21.7111C75.6784 21.16 77.3997 20.8705 79.5127 20.8705V19.5784C77.2918 19.5784 75.3925 19.8812 73.8381 20.5145L74.3256 21.7111ZM79.5127 20.8705C81.896 20.8705 83.7034 21.157 84.9773 21.6888L85.4751 20.4964C83.9763 19.8707 81.9748 19.5784 79.5127 19.5784V20.8705ZM84.9823 21.6908C86.2327 22.2007 87.0761 22.9933 87.5659 24.0662L88.7413 23.5296C88.1005 22.1261 86.9923 21.1151 85.4701 20.4944L84.9823 21.6908ZM87.5683 24.0715C88.0922 25.1923 88.3757 26.7299 88.3757 28.724H89.6678C89.6678 26.6265 89.3725 24.8801 88.7389 23.5244L87.5683 24.0715ZM88.3757 28.724C88.3757 30.0142 88.3689 31.1077 88.3556 32.0052L89.6475 32.0245C89.661 31.1185 89.6678 30.0181 89.6678 28.724H88.3757ZM88.3555 32.0149C88.3555 32.9135 88.3488 33.9135 88.3353 35.0151L89.6273 35.0309C89.6408 33.9252 89.6476 32.9198 89.6476 32.0149H88.3555ZM88.3353 35.023C88.3353 36.1297 88.515 37.2754 88.8669 38.4577L90.1053 38.0892C89.7842 37.0103 89.6274 35.9891 89.6274 35.023H88.3353ZM88.8696 38.4666C89.0424 39.0184 89.1691 39.4629 89.252 39.8039C89.3388 40.1614 89.3649 40.3563 89.3649 40.4337H90.657C90.657 40.188 90.5956 39.8614 90.5075 39.4988C90.4154 39.1197 90.2796 38.6456 90.1026 38.0803L88.8696 38.4666ZM89.3649 40.4337C89.3649 40.7654 89.2162 41.1186 88.778 41.502L89.6288 42.4744C90.2674 41.9157 90.657 41.2325 90.657 40.4337H89.3649ZM88.7789 41.5012C88.3671 41.8602 87.9176 42.0286 87.4066 42.0286V43.3207C88.2415 43.3207 88.9899 43.0315 89.628 42.4752L88.7789 41.5012ZM87.4066 42.0286C87.0578 42.0286 86.6505 41.8704 86.1762 41.4192L85.2856 42.3554C85.915 42.954 86.6248 43.3207 87.4066 43.3207V42.0286ZM86.1821 41.4248C85.683 40.938 85.1296 40.2132 84.5252 39.2278L83.4238 39.9033C84.0576 40.9368 84.6751 41.7598 85.2798 42.3497L86.1821 41.4248ZM83.3887 30.9843C82.623 31.2651 81.4794 31.574 79.9408 31.9085L80.2152 33.1711C81.7722 32.8326 82.9841 32.5089 83.8335 32.1974L83.3887 30.9843ZM79.9449 31.9076C78.4114 32.2304 77.3309 32.4762 76.7181 32.6433L77.0581 33.8899C77.6298 33.734 78.6759 33.4952 80.2111 33.172L79.9449 31.9076ZM76.7314 32.6398C76.0287 32.8155 75.376 33.171 74.7738 33.6828L75.6107 34.6673C76.0852 34.2639 76.5631 34.0137 77.0448 33.8933L76.7314 32.6398ZM74.7811 33.6767C74.0697 34.2636 73.7386 35.0861 73.7386 36.0527H75.0307C75.0307 35.4041 75.2381 34.9748 75.6034 34.6734L74.7811 33.6767ZM73.7386 36.0527C73.7386 37.0735 74.1346 37.9552 74.892 38.6643L75.7751 37.7211C75.2673 37.2457 75.0307 36.7008 75.0307 36.0527H73.7386ZM74.8975 38.6693C75.6714 39.3774 76.6655 39.7069 77.8168 39.7069V38.4148C76.9224 38.4148 76.2609 38.1654 75.7697 37.716L74.8975 38.6693ZM77.8168 39.7069C79.0036 39.7069 80.1086 39.4496 81.1206 38.9286L80.5293 37.7798C79.7109 38.201 78.8104 38.4148 77.8168 38.4148V39.7069ZM81.1238 38.927C82.1394 38.3971 82.9212 37.6989 83.425 36.8173L82.3031 36.1763C81.9455 36.8022 81.368 37.3422 80.5261 37.7814L81.1238 38.927ZM83.4188 36.8279C84.0109 35.8358 84.2571 34.3131 84.2571 32.3783H82.965C82.965 34.2659 82.7132 35.4889 82.3093 36.1657L83.4188 36.8279ZM84.2571 32.3783V31.5909H82.965V32.3783H84.2571ZM93.2525 20.7494V21.3954H93.8986V20.7494H93.2525ZM93.3131 15.3589L92.6706 15.2913L92.6698 15.299L92.6692 15.3067L93.3131 15.3589ZM93.7169 14.0466L94.2727 14.376L94.2778 14.3672L93.7169 14.0466ZM94.6456 13.1381L94.9641 13.7002L94.9711 13.6963L94.978 13.6921L94.6456 13.1381ZM97.896 13.5621L97.4564 14.0355L97.896 13.5621ZM98.6026 14.8542L97.9673 14.9712L97.9691 14.981L97.9712 14.9907L98.6026 14.8542ZM98.7641 20.7494H98.1181V21.3954H98.7641V20.7494ZM102.56 21.3147L102.119 21.787L102.127 21.7946L102.135 21.8019L102.56 21.3147ZM102.297 24.2825L102.008 23.7046L102.003 23.7073L102.297 24.2825ZM98.7641 24.7266V24.0806H98.1181V24.7266H98.7641ZM98.8449 36.8602L98.203 36.9336L98.2042 36.9439L98.2057 36.9542L98.8449 36.8602ZM99.3294 37.9908L98.8405 38.4131L98.8507 38.425L98.8616 38.4363L99.3294 37.9908ZM101.934 38.2533L102.058 38.8873L102.065 38.8859L102.072 38.8843L101.934 38.2533ZM104.417 38.6167L103.952 39.0648L103.96 39.0736L103.969 39.082L104.417 38.6167ZM93.6563 39.404L93.0315 39.5685L93.0336 39.5761L93.6563 39.404ZM93.2525 24.7266H93.8986V24.0806H93.2525V24.7266ZM90.7289 21.3147L91.1455 21.8085L91.1469 21.8073L90.7289 21.3147ZM92.6469 21.3954H93.2525V20.1033H92.6469V21.3954ZM93.8986 20.7494V17.4384H92.6065V20.7494H93.8986ZM93.8986 17.4384C93.8986 16.5564 93.9187 15.8834 93.957 15.4111L92.6692 15.3067C92.6267 15.8305 92.6065 16.5438 92.6065 17.4384H93.8986ZM93.9556 15.4266C94.0018 14.9879 94.1139 14.644 94.2727 14.376L93.1611 13.7173C92.8892 14.1761 92.7321 14.7071 92.6706 15.2913L93.9556 15.4266ZM94.2778 14.3672C94.4315 14.0982 94.6541 13.8759 94.9641 13.7002L94.3271 12.5761C93.8295 12.858 93.4329 13.2414 93.1559 13.7261L94.2778 14.3672ZM94.978 13.6921C95.2755 13.5136 95.6103 13.4208 95.9982 13.4208V12.1287C95.3902 12.1287 94.8232 12.2781 94.3132 12.5842L94.978 13.6921ZM95.9982 13.4208C96.5178 13.4208 96.9973 13.6093 97.4564 14.0355L98.3356 13.0887C97.6641 12.4651 96.8784 12.1287 95.9982 12.1287V13.4208ZM97.4564 14.0355C97.7301 14.2897 97.8979 14.5949 97.9673 14.9712L99.238 14.7372C99.1189 14.0906 98.8156 13.5344 98.3356 13.0887L97.4564 14.0355ZM97.9712 14.9907C98.0643 15.4213 98.1181 16.0805 98.1181 16.9942H99.4102C99.4102 16.0505 99.3563 15.2831 99.2341 14.7177L97.9712 14.9907ZM98.1181 16.9942V20.7494H99.4102V16.9942H98.1181ZM98.7641 21.3954H100.783V20.1033H98.7641V21.3954ZM100.783 21.3954C101.468 21.3954 101.876 21.5607 102.119 21.787L103 20.8424C102.435 20.315 101.66 20.1033 100.783 20.1033V21.3954ZM102.135 21.8019C102.404 22.0363 102.539 22.3262 102.539 22.7279H103.832C103.832 21.9721 103.549 21.3199 102.984 20.8275L102.135 21.8019ZM102.539 22.7279C102.539 23.0124 102.483 23.2106 102.403 23.3512C102.325 23.4876 102.203 23.6071 102.008 23.7046L102.586 24.8603C102.983 24.6617 103.306 24.3741 103.524 23.9923C103.74 23.6147 103.832 23.1837 103.832 22.7279H102.539ZM102.003 23.7073C101.557 23.9354 100.842 24.0806 99.7938 24.0806V25.3727C100.926 25.3727 101.88 25.2218 102.591 24.8576L102.003 23.7073ZM99.7938 24.0806H98.7641V25.3727H99.7938V24.0806ZM98.1181 24.7266V34.8615H99.4102V24.7266H98.1181ZM98.1181 34.8615C98.1181 35.7311 98.145 36.426 98.203 36.9336L99.4867 36.7869C99.4371 36.3522 99.4102 35.7147 99.4102 34.8615H98.1181ZM98.2057 36.9542C98.2876 37.5108 98.4908 38.0082 98.8405 38.4131L99.8184 37.5685C99.6565 37.3812 99.5368 37.1248 99.4841 36.7662L98.2057 36.9542ZM98.8616 38.4363C99.3036 38.9005 99.9431 39.0608 100.622 39.0608V37.7687C100.115 37.7687 99.8936 37.6464 99.7972 37.5452L98.8616 38.4363ZM100.622 39.0608C101.006 39.0608 101.49 38.9981 102.058 38.8873L101.81 37.6192C101.274 37.7238 100.883 37.7687 100.622 37.7687V39.0608ZM102.072 38.8843C102.609 38.7664 102.986 38.7176 103.226 38.7176V37.4255C102.846 37.4255 102.362 37.4979 101.795 37.6222L102.072 38.8843ZM103.226 38.7176C103.47 38.7176 103.705 38.809 103.952 39.0648L104.882 38.1685C104.429 37.6975 103.87 37.4255 103.226 37.4255V38.7176ZM103.969 39.082C104.2 39.3048 104.316 39.5716 104.316 39.9289H105.608C105.608 39.2364 105.361 38.6284 104.865 38.1513L103.969 39.082ZM104.316 39.9289C104.316 40.2478 104.232 40.5068 104.073 40.7299C103.909 40.9599 103.641 41.1853 103.226 41.387L103.791 42.5491C104.345 42.2797 104.804 41.9297 105.125 41.48C105.45 41.0234 105.608 40.4984 105.608 39.9289H104.316ZM103.226 41.387C102.386 41.7955 101.107 42.0286 99.3294 42.0286V43.3207C101.186 43.3207 102.693 43.0827 103.791 42.5491L103.226 41.387ZM99.3294 42.0286C97.6609 42.0286 96.502 41.7451 95.7654 41.2652L95.0601 42.3478C96.1001 43.0254 97.5523 43.3207 99.3294 43.3207V42.0286ZM95.7654 41.2652C95.0093 40.7726 94.5197 40.1031 94.279 39.232L93.0336 39.5761C93.3582 40.7507 94.0396 41.683 95.0601 42.3478L95.7654 41.2652ZM94.2811 39.2396C94.032 38.2929 93.8986 36.9891 93.8986 35.3057H92.6065C92.6065 37.0409 92.7423 38.4693 93.0315 39.5684L94.2811 39.2396ZM93.8986 35.3057V24.7266H92.6065V35.3057H93.8986ZM93.2525 24.0806H92.5257V25.3727H93.2525V24.0806ZM92.5257 24.0806C91.8259 24.0806 91.3991 23.9144 91.1418 23.6819L90.2757 24.6408C90.8528 25.162 91.6374 25.3727 92.5257 25.3727V24.0806ZM91.1418 23.6819C90.8646 23.4316 90.7289 23.13 90.7289 22.7279H89.4368C89.4368 23.4833 89.7184 24.1374 90.2757 24.6408L91.1418 23.6819ZM90.7289 22.7279C90.7289 22.3336 90.8648 22.0453 91.1455 21.8085L90.3123 20.8209C89.7316 21.3108 89.4368 21.9647 89.4368 22.7279H90.7289ZM91.1469 21.8073C91.4328 21.5647 91.9004 21.3954 92.6469 21.3954V20.1033C91.7244 20.1033 90.9134 20.3109 90.3109 20.8221L91.1469 21.8073Z" fill="#23A049"/>
<path d="M4.7215 12.4C17.4973 3.18362 52.2474 -9.84501 89.0416 11.7716C74.2217 7.37291 36.6098 1.34038 4.7215 12.4Z" fill="#D2242E"/>
<path d="M49.5239 55.5336C49.3092 55.5336 49.1241 55.5175 48.9684 55.4853C48.8182 55.4531 48.743 55.437 48.743 55.437L48.9121 54.624C48.9121 54.624 48.9818 54.6374 49.1214 54.6642C49.2609 54.6857 49.4058 54.6964 49.5561 54.6964C50.0122 54.6964 50.3664 54.5757 50.6186 54.3342C50.8709 54.0873 51.0399 53.7654 51.1258 53.3682L51.9549 49.4963H52.8887L52.0595 53.3924C51.9683 53.811 51.8207 54.1813 51.6168 54.5033C51.4182 54.8252 51.1472 55.0775 50.8038 55.2599C50.4603 55.4424 50.0337 55.5336 49.5239 55.5336ZM54.4453 50.4864C54.2736 50.4864 54.134 50.4301 54.0267 50.3174C53.9194 50.2047 53.8657 50.0732 53.8657 49.9229C53.8657 49.7673 53.9194 49.6358 54.0267 49.5285C54.134 49.4158 54.2736 49.3595 54.4453 49.3595C54.6063 49.3595 54.7404 49.4158 54.8478 49.5285C54.9605 49.6358 55.0168 49.7673 55.0168 49.9229C55.0168 50.0786 54.9605 50.2127 54.8478 50.3254C54.7404 50.4328 54.6063 50.4864 54.4453 50.4864ZM52.8031 55.4531L53.7128 51.1868H54.6385L53.7289 55.4531H52.8031ZM55.0056 55.4531L55.9071 51.1868H56.8329L56.696 51.8066H56.7282C56.7282 51.8066 56.7524 51.7717 56.8007 51.7019C56.8543 51.6268 56.9321 51.5436 57.0341 51.4524C57.1361 51.3612 57.2649 51.2807 57.4205 51.2109C57.5815 51.1411 57.7693 51.1063 57.984 51.1063C58.2791 51.1063 58.5233 51.1841 58.7165 51.3397C58.9151 51.49 59.0492 51.6939 59.119 51.9515H59.1592C59.1592 51.9515 59.1888 51.9085 59.2478 51.8227C59.3068 51.7368 59.3954 51.6402 59.5134 51.5329C59.6315 51.4202 59.7791 51.3209 59.9562 51.2351C60.1386 51.1492 60.3506 51.1063 60.5921 51.1063C60.8873 51.1063 61.1314 51.1787 61.3246 51.3236C61.5232 51.4685 61.66 51.6644 61.7352 51.9112C61.8103 52.1581 61.8157 52.4345 61.7513 52.7404L61.1797 55.4531H60.254L60.8094 52.845C60.8685 52.5606 60.847 52.3298 60.745 52.1527C60.6484 51.9703 60.4687 51.879 60.2057 51.879C59.991 51.879 59.8059 51.9381 59.6503 52.0561C59.4946 52.1688 59.3658 52.3191 59.2639 52.5069C59.1673 52.6894 59.0948 52.8879 59.0465 53.1026L58.5475 55.4531H57.6217L58.1772 52.845C58.2362 52.5767 58.2201 52.3486 58.1289 52.1608C58.0376 51.9729 57.8552 51.879 57.5815 51.879C57.3668 51.879 57.179 51.9407 57.018 52.0642C56.8624 52.1822 56.7336 52.3352 56.6316 52.523C56.535 52.7055 56.4653 52.8987 56.4223 53.1026L55.9232 55.4531H55.0056ZM64.8189 51.1063C65.1087 51.1063 65.3448 51.1519 65.5273 51.2431C65.7098 51.3343 65.8493 51.4417 65.9459 51.5651C66.0478 51.6885 66.1176 51.7985 66.1552 51.8951H66.2035L66.3564 51.1868H67.2821L66.3725 55.4531H65.4468L65.5675 54.8735H65.5273C65.5273 54.8735 65.5005 54.9084 65.4468 54.9782C65.3985 55.0426 65.3207 55.1177 65.2133 55.2036C65.1114 55.2894 64.9772 55.3673 64.8109 55.437C64.6445 55.5014 64.4459 55.5336 64.2152 55.5336C63.8503 55.5336 63.547 55.4478 63.3056 55.276C63.0641 55.0989 62.8816 54.8682 62.7582 54.5838C62.6401 54.2993 62.5811 53.9934 62.5811 53.6661C62.5811 53.3656 62.6294 53.065 62.726 52.7645C62.8226 52.4586 62.9675 52.1822 63.1607 51.9354C63.3539 51.6832 63.5873 51.4819 63.861 51.3316C64.14 51.1814 64.4594 51.1063 64.8189 51.1063ZM64.9236 51.871C64.6982 51.871 64.4969 51.9246 64.3198 52.032C64.1427 52.1339 63.9925 52.2735 63.869 52.4506C63.7456 52.6223 63.649 52.8128 63.5792 53.0221C63.5148 53.226 63.4826 53.4273 63.4826 53.6258C63.4826 53.8298 63.5175 54.0203 63.5873 54.1974C63.6571 54.3691 63.7644 54.5086 63.9093 54.6159C64.0542 54.7179 64.2393 54.7689 64.4647 54.7689C64.6901 54.7689 64.8914 54.7179 65.0685 54.6159C65.2455 54.5086 65.3958 54.3691 65.5192 54.1974C65.6427 54.0256 65.7366 53.8378 65.801 53.6339C65.8654 53.4246 65.8976 53.218 65.8976 53.014C65.8976 52.8101 65.8627 52.6223 65.7929 52.4506C65.7285 52.2735 65.6239 52.1339 65.479 52.032C65.3341 51.9246 65.149 51.871 64.9236 51.871ZM69.2781 55.5336C68.9346 55.5336 68.669 55.4665 68.4812 55.3324C68.2933 55.1928 68.1726 55.0104 68.1189 54.785C68.0653 54.5596 68.0653 54.3154 68.1189 54.0525L68.5697 51.9273H67.813L67.974 51.1868H68.7307L68.9561 50.1242H69.8818L69.6564 51.1868H70.6385L70.4775 51.9273H69.5035L69.0366 54.0927C68.9883 54.3288 69.0098 54.5006 69.101 54.6079C69.1922 54.7152 69.3479 54.7689 69.5679 54.7689C69.6806 54.7689 69.7879 54.7635 69.8899 54.7528C69.9918 54.7367 70.0428 54.7286 70.0428 54.7286L69.8818 55.4692C69.8818 55.4692 69.8228 55.48 69.7047 55.5014C69.5867 55.5229 69.4445 55.5336 69.2781 55.5336Z" fill="#D2242E"/>
<path d="M75.5108 55.5336C75.0815 55.5336 74.7085 55.4639 74.3919 55.3243C74.0753 55.1794 73.8123 54.9836 73.603 54.7367C73.3991 54.4898 73.2461 54.2108 73.1442 53.8995C73.0422 53.5829 72.9912 53.2502 72.9912 52.9014C72.9912 52.4881 73.061 52.0776 73.2005 51.6697C73.3454 51.2565 73.5547 50.8809 73.8284 50.5428C74.1075 50.1993 74.4456 49.9256 74.8427 49.7217C75.2452 49.5178 75.704 49.4158 76.2192 49.4158C76.6539 49.4158 77.0295 49.4883 77.3462 49.6331C77.6628 49.7727 77.9231 49.9659 78.127 50.2127C78.3363 50.4596 78.4892 50.7413 78.5858 51.058C78.6878 51.3746 78.7388 51.7046 78.7388 52.0481C78.7388 52.4613 78.6663 52.8745 78.5214 53.2877C78.3819 53.6956 78.1753 54.0712 77.9016 54.4147C77.6279 54.7528 77.2898 55.0238 76.8873 55.2277C76.4902 55.4317 76.0314 55.5336 75.5108 55.5336ZM75.543 54.6884C75.9026 54.6884 76.2219 54.6106 76.5009 54.455C76.78 54.2993 77.0134 54.0927 77.2013 53.8351C77.3945 53.5775 77.5394 53.2958 77.636 52.9899C77.7379 52.6786 77.7889 52.3701 77.7889 52.0642C77.7889 51.7476 77.7325 51.4524 77.6199 51.1787C77.5072 50.905 77.3327 50.685 77.0966 50.5186C76.8605 50.3469 76.56 50.261 76.195 50.261C75.8355 50.261 75.5162 50.3388 75.2371 50.4945C74.9634 50.6501 74.73 50.8567 74.5368 51.1143C74.3436 51.3719 74.196 51.6563 74.0941 51.9676C73.9975 52.2735 73.9492 52.5794 73.9492 52.8853C73.9492 53.2019 74.0055 53.497 74.1182 53.7707C74.2309 54.0444 74.4053 54.2671 74.6414 54.4389C74.8776 54.6052 75.1781 54.6884 75.543 54.6884ZM79.0762 55.4531L79.9859 51.1868H80.9035L80.7747 51.8066H80.815C80.815 51.8066 80.8391 51.7717 80.8874 51.7019C80.9357 51.6268 81.0109 51.5436 81.1128 51.4524C81.2148 51.3612 81.3463 51.2807 81.5073 51.2109C81.6683 51.1411 81.8588 51.1063 82.0788 51.1063C82.3954 51.1063 82.653 51.1868 82.8516 51.3477C83.0501 51.5034 83.1843 51.7127 83.2541 51.9756C83.3292 52.2332 83.3319 52.5176 83.2621 52.8289L82.7067 55.4531H81.7809L82.3364 52.8531C82.39 52.5847 82.3659 52.3567 82.2639 52.1688C82.162 51.9756 81.9715 51.879 81.6924 51.879C81.3704 51.879 81.1101 51.9944 80.9116 52.2252C80.713 52.4506 80.5788 52.7269 80.5091 53.0543L79.9939 55.4531H79.0762ZM83.896 55.4531L85.2001 49.3353H86.1258L84.8137 55.4531H83.896ZM87.6505 50.4864C87.4788 50.4864 87.3393 50.4301 87.232 50.3174C87.1246 50.2047 87.071 50.0732 87.071 49.9229C87.071 49.7673 87.1246 49.6358 87.232 49.5285C87.3393 49.4158 87.4788 49.3595 87.6505 49.3595C87.8115 49.3595 87.9457 49.4158 88.053 49.5285C88.1657 49.6358 88.2221 49.7673 88.2221 49.9229C88.2221 50.0786 88.1657 50.2127 88.053 50.3254C87.9457 50.4328 87.8115 50.4864 87.6505 50.4864ZM86.0084 55.4531L86.918 51.1868H87.8437L86.9341 55.4531H86.0084ZM88.2108 55.4531L89.1204 51.1868H90.0381L89.9093 51.8066H89.9496C89.9496 51.8066 89.9737 51.7717 90.022 51.7019C90.0703 51.6268 90.1454 51.5436 90.2474 51.4524C90.3494 51.3612 90.4809 51.2807 90.6418 51.2109C90.8028 51.1411 90.9934 51.1063 91.2134 51.1063C91.53 51.1063 91.7876 51.1868 91.9862 51.3477C92.1847 51.5034 92.3189 51.7127 92.3886 51.9756C92.4638 52.2332 92.4665 52.5176 92.3967 52.8289L91.8413 55.4531H90.9155L91.471 52.8531C91.5246 52.5847 91.5005 52.3567 91.3985 52.1688C91.2966 51.9756 91.106 51.879 90.827 51.879C90.505 51.879 90.2447 51.9944 90.0462 52.2252C89.8476 52.4506 89.7134 52.7269 89.6437 53.0543L89.1285 55.4531H88.2108ZM95.1067 55.5336C94.6774 55.5336 94.3259 55.4451 94.0522 55.268C93.7839 55.0855 93.5826 54.8494 93.4484 54.5596C93.3143 54.2698 93.2472 53.9612 93.2472 53.6339C93.2472 53.3334 93.2982 53.0355 93.4001 52.7404C93.5075 52.4398 93.6604 52.1661 93.859 51.9193C94.0629 51.6724 94.3125 51.4765 94.6076 51.3316C94.9028 51.1814 95.2409 51.1063 95.6219 51.1063C95.9922 51.1063 96.2981 51.1787 96.5396 51.3236C96.781 51.4685 96.9635 51.659 97.0869 51.8951C97.2157 52.1259 97.2935 52.3781 97.3204 52.6518C97.3526 52.9255 97.3392 53.1885 97.2801 53.4407L97.2479 53.5856H94.1488C94.1541 53.929 94.2373 54.2161 94.3983 54.4469C94.5647 54.6777 94.8223 54.793 95.1711 54.793C95.375 54.793 95.5441 54.7608 95.6782 54.6964C95.8124 54.6267 95.917 54.5489 95.9922 54.463C96.0727 54.3771 96.129 54.302 96.1612 54.2376C96.1934 54.1678 96.2095 54.133 96.2095 54.133H97.0789C97.0789 54.133 97.0601 54.1813 97.0225 54.2779C96.985 54.3691 96.9206 54.4845 96.8293 54.624C96.7435 54.7635 96.6254 54.9031 96.4752 55.0426C96.3249 55.1821 96.1371 55.3002 95.9117 55.3968C95.6863 55.488 95.418 55.5336 95.1067 55.5336ZM94.2615 52.9416H96.4832C96.51 52.7591 96.4939 52.5847 96.4349 52.4184C96.3812 52.252 96.282 52.1152 96.1371 52.0078C95.9922 51.9005 95.8043 51.8468 95.5736 51.8468C95.2462 51.8468 94.9698 51.9542 94.7445 52.1688C94.5191 52.3835 94.3581 52.6411 94.2615 52.9416ZM99.7204 55.4531L100.984 49.4963H101.918L100.654 55.4531H99.7204ZM101.889 55.4531L102.799 51.1868H103.716L103.588 51.8066H103.628C103.628 51.8066 103.652 51.7717 103.7 51.7019C103.749 51.6268 103.824 51.5436 103.926 51.4524C104.028 51.3612 104.159 51.2807 104.32 51.2109C104.481 51.1411 104.672 51.1063 104.892 51.1063C105.208 51.1063 105.466 51.1868 105.664 51.3477C105.863 51.5034 105.997 51.7127 106.067 51.9756C106.142 52.2332 106.145 52.5176 106.075 52.8289L105.52 55.4531H104.594L105.149 52.8531C105.203 52.5847 105.179 52.3567 105.077 52.1688C104.975 51.9756 104.784 51.879 104.505 51.879C104.183 51.879 103.923 51.9944 103.724 52.2252C103.526 52.4506 103.392 52.7269 103.322 53.0543L102.807 55.4531H101.889ZM108.383 55.5336C108.045 55.5336 107.766 55.488 107.546 55.3968C107.331 55.3002 107.162 55.1821 107.039 55.0426C106.921 54.9031 106.835 54.7662 106.781 54.632C106.728 54.4925 106.693 54.3771 106.677 54.2859C106.666 54.1893 106.661 54.141 106.661 54.141H107.57C107.57 54.141 107.576 54.1732 107.586 54.2376C107.602 54.302 107.637 54.3771 107.691 54.463C107.745 54.5489 107.828 54.6267 107.941 54.6964C108.059 54.7608 108.225 54.793 108.44 54.793C108.686 54.793 108.88 54.7421 109.019 54.6401C109.159 54.5381 109.228 54.4093 109.228 54.2537C109.228 54.1142 109.172 54.0095 109.059 53.9398C108.952 53.8646 108.829 53.8002 108.689 53.7466L108.222 53.5856C107.911 53.4729 107.667 53.328 107.49 53.1509C107.318 52.9684 107.232 52.735 107.232 52.4506C107.232 52.2144 107.291 51.9944 107.409 51.7905C107.533 51.5866 107.715 51.4229 107.957 51.2994C108.198 51.1707 108.496 51.1063 108.85 51.1063C109.156 51.1063 109.408 51.1492 109.607 51.2351C109.805 51.3209 109.961 51.4282 110.074 51.557C110.192 51.6805 110.278 51.8066 110.331 51.9354C110.385 52.0588 110.42 52.1635 110.436 52.2493C110.452 52.3352 110.46 52.3781 110.46 52.3781H109.583C109.583 52.3781 109.575 52.3513 109.559 52.2976C109.542 52.244 109.508 52.1822 109.454 52.1125C109.406 52.0373 109.328 51.9729 109.22 51.9193C109.113 51.8602 108.971 51.8307 108.794 51.8307C108.574 51.8307 108.405 51.8844 108.287 51.9917C108.169 52.0991 108.11 52.2225 108.11 52.362C108.11 52.4801 108.15 52.5767 108.23 52.6518C108.316 52.7269 108.426 52.7913 108.56 52.845L109.035 53.0221C109.202 53.0758 109.368 53.1509 109.534 53.2475C109.701 53.3441 109.838 53.4702 109.945 53.6258C110.058 53.7815 110.114 53.9747 110.114 54.2054C110.114 54.4469 110.047 54.6696 109.913 54.8735C109.779 55.0721 109.583 55.2331 109.325 55.3565C109.067 55.4746 108.754 55.5336 108.383 55.5336ZM112.204 55.5336C111.931 55.5336 111.7 55.4692 111.512 55.3404C111.324 55.2116 111.193 55.0292 111.118 54.793C111.043 54.5569 111.04 54.2752 111.11 53.9478L111.697 51.1868H112.623L112.035 53.9398C111.982 54.2027 112.009 54.4067 112.116 54.5516C112.229 54.6911 112.4 54.7608 112.631 54.7608C112.862 54.7608 113.058 54.7018 113.219 54.5838C113.385 54.4657 113.519 54.3154 113.621 54.133C113.729 53.9451 113.801 53.7493 113.839 53.5453L114.338 51.1868H115.263L114.362 55.4531H113.436L113.565 54.8413H113.517C113.458 54.9218 113.372 55.0184 113.259 55.1311C113.152 55.2385 113.012 55.3324 112.84 55.4129C112.669 55.4934 112.457 55.5336 112.204 55.5336ZM115.575 55.4531L116.485 51.1868H117.403L117.282 51.7502H117.322C117.44 51.5731 117.601 51.4229 117.805 51.2994C118.014 51.1707 118.272 51.1063 118.578 51.1063C118.674 51.1063 118.755 51.1116 118.819 51.1224C118.889 51.1331 118.924 51.1385 118.924 51.1385L118.739 52.0239C118.739 52.0239 118.709 52.0186 118.65 52.0078C118.591 51.9971 118.519 51.9917 118.433 51.9917C118.052 51.9917 117.727 52.1259 117.459 52.3942C117.196 52.6625 117.005 53.0758 116.887 53.6339L116.493 55.4531H115.575ZM121.285 51.1063C121.575 51.1063 121.811 51.1519 121.994 51.2431C122.176 51.3343 122.316 51.4417 122.412 51.5651C122.514 51.6885 122.584 51.7985 122.621 51.8951H122.67L122.823 51.1868H123.748L122.839 55.4531H121.913L122.034 54.8735H121.994C121.994 54.8735 121.967 54.9084 121.913 54.9782C121.865 55.0426 121.787 55.1177 121.68 55.2036C121.578 55.2894 121.443 55.3673 121.277 55.437C121.111 55.5014 120.912 55.5336 120.681 55.5336C120.316 55.5336 120.013 55.4478 119.772 55.276C119.53 55.0989 119.348 54.8682 119.224 54.5838C119.106 54.2993 119.047 53.9934 119.047 53.6661C119.047 53.3656 119.096 53.065 119.192 52.7645C119.289 52.4586 119.434 52.1822 119.627 51.9354C119.82 51.6832 120.054 51.4819 120.327 51.3316C120.606 51.1814 120.926 51.1063 121.285 51.1063ZM121.39 51.871C121.164 51.871 120.963 51.9246 120.786 52.032C120.609 52.1339 120.459 52.2735 120.335 52.4506C120.212 52.6223 120.115 52.8128 120.045 53.0221C119.981 53.226 119.949 53.4273 119.949 53.6258C119.949 53.8298 119.984 54.0203 120.054 54.1974C120.123 54.3691 120.231 54.5086 120.376 54.6159C120.52 54.7179 120.706 54.7689 120.931 54.7689C121.156 54.7689 121.358 54.7179 121.535 54.6159C121.712 54.5086 121.862 54.3691 121.985 54.1974C122.109 54.0256 122.203 53.8378 122.267 53.6339C122.332 53.4246 122.364 53.218 122.364 53.014C122.364 52.8101 122.329 52.6223 122.259 52.4506C122.195 52.2735 122.09 52.1339 121.945 52.032C121.8 51.9246 121.615 51.871 121.39 51.871ZM123.995 55.4531L124.904 51.1868H125.822L125.693 51.8066H125.733C125.733 51.8066 125.757 51.7717 125.806 51.7019C125.854 51.6268 125.929 51.5436 126.031 51.4524C126.133 51.3612 126.265 51.2807 126.426 51.2109C126.587 51.1411 126.777 51.1063 126.997 51.1063C127.314 51.1063 127.571 51.1868 127.77 51.3477C127.968 51.5034 128.103 51.7127 128.172 51.9756C128.247 52.2332 128.25 52.5176 128.18 52.8289L127.625 55.4531H126.699L127.255 52.8531C127.308 52.5847 127.284 52.3567 127.182 52.1688C127.08 51.9756 126.89 51.879 126.611 51.879C126.289 51.879 126.028 51.9944 125.83 52.2252C125.631 52.4506 125.497 52.7269 125.427 53.0543L124.912 55.4531H123.995ZM130.874 55.5336C130.456 55.5336 130.11 55.4478 129.836 55.276C129.568 55.0989 129.366 54.8655 129.232 54.5757C129.098 54.2859 129.031 53.9693 129.031 53.6258C129.031 53.3092 129.085 53.0006 129.192 52.7001C129.299 52.3996 129.455 52.1313 129.659 51.8951C129.868 51.6536 130.123 51.4631 130.424 51.3236C130.729 51.1787 131.076 51.1063 131.462 51.1063C131.805 51.1063 132.084 51.1599 132.299 51.2672C132.519 51.3692 132.688 51.498 132.806 51.6536C132.924 51.8093 133.005 51.9649 133.048 52.1205C133.096 52.2762 133.123 52.4076 133.128 52.515C133.139 52.6223 133.144 52.676 133.144 52.676H132.275C132.275 52.676 132.27 52.6357 132.259 52.5552C132.253 52.4747 132.224 52.3808 132.17 52.2735C132.122 52.1661 132.036 52.0722 131.913 51.9917C131.795 51.9112 131.626 51.871 131.406 51.871C131.1 51.871 130.837 51.9542 130.617 52.1205C130.402 52.2815 130.236 52.4935 130.118 52.7565C130.005 53.014 129.949 53.2877 129.949 53.5775C129.949 53.9103 130.029 54.192 130.19 54.4228C130.356 54.6535 130.611 54.7689 130.955 54.7689C131.169 54.7689 131.347 54.7286 131.486 54.6481C131.631 54.5677 131.744 54.4737 131.824 54.3664C131.905 54.2591 131.961 54.1652 131.993 54.0847C132.025 54.0042 132.042 53.9639 132.042 53.9639H132.919C132.919 53.9639 132.9 54.0176 132.863 54.1249C132.83 54.2322 132.771 54.3637 132.685 54.5194C132.6 54.675 132.479 54.8306 132.323 54.9862C132.173 55.1419 131.977 55.2733 131.736 55.3807C131.499 55.4826 131.212 55.5336 130.874 55.5336ZM135.646 55.5336C135.217 55.5336 134.866 55.4451 134.592 55.268C134.324 55.0855 134.122 54.8494 133.988 54.5596C133.854 54.2698 133.787 53.9612 133.787 53.6339C133.787 53.3334 133.838 53.0355 133.94 52.7404C134.047 52.4398 134.2 52.1661 134.399 51.9193C134.603 51.6724 134.852 51.4765 135.147 51.3316C135.442 51.1814 135.781 51.1063 136.162 51.1063C136.532 51.1063 136.838 51.1787 137.079 51.3236C137.321 51.4685 137.503 51.659 137.627 51.8951C137.755 52.1259 137.833 52.3781 137.86 52.6518C137.892 52.9255 137.879 53.1885 137.82 53.4407L137.788 53.5856H134.688C134.694 53.929 134.777 54.2161 134.938 54.4469C135.104 54.6777 135.362 54.793 135.711 54.793C135.915 54.793 136.084 54.7608 136.218 54.6964C136.352 54.6267 136.457 54.5489 136.532 54.463C136.612 54.3771 136.669 54.302 136.701 54.2376C136.733 54.1678 136.749 54.133 136.749 54.133H137.619C137.619 54.133 137.6 54.1813 137.562 54.2779C137.525 54.3691 137.46 54.4845 137.369 54.624C137.283 54.7635 137.165 54.9031 137.015 55.0426C136.865 55.1821 136.677 55.3002 136.451 55.3968C136.226 55.488 135.958 55.5336 135.646 55.5336ZM134.801 52.9416H137.023C137.05 52.7591 137.034 52.5847 136.975 52.4184C136.921 52.252 136.822 52.1152 136.677 52.0078C136.532 51.9005 136.344 51.8468 136.113 51.8468C135.786 51.8468 135.51 51.9542 135.284 52.1688C135.059 52.3835 134.898 52.6411 134.801 52.9416Z" fill="#23A049"/>
</svg>
