<svg width="111" height="54" viewBox="0 0 111 54" fill="none" xmlns="http://www.w3.org/2000/svg">
<path d="M17.504 13.789C17.2192 13.419 16.8338 13.1451 16.3468 12.9675C15.8598 12.7908 15.3998 12.7011 14.9649 12.7011C14.7098 12.7011 14.4483 12.7325 14.1788 12.7936C13.9092 12.8556 13.6541 12.9518 13.4151 13.0822C13.1752 13.2136 12.9802 13.3866 12.8311 13.6021C12.681 13.8186 12.6064 14.0804 12.6064 14.3885C12.6064 14.8825 12.7861 15.2599 13.1455 15.5217C13.5049 15.7844 13.9577 16.0074 14.504 16.1924C15.0503 16.3774 15.6379 16.5625 16.2668 16.7475C16.8958 16.9325 17.4834 17.1952 18.0296 17.5338C18.5759 17.8733 19.0287 18.3285 19.3881 18.8983C19.7475 19.4691 19.9272 20.2323 19.9272 21.1879C19.9272 22.1436 19.7619 22.892 19.433 23.5701C19.1033 24.2491 18.6586 24.8116 18.0961 25.2584C17.5346 25.7061 16.8832 26.0373 16.1419 26.2529C15.4007 26.4684 14.6181 26.5767 13.7951 26.5767C12.7619 26.5767 11.8032 26.4148 10.92 26.091C10.0359 25.7672 9.21292 25.2436 8.44922 24.5183L10.9425 21.6968C11.3019 22.1908 11.7547 22.5719 12.301 22.842C12.8472 23.1122 13.4133 23.2472 13.9973 23.2472C14.2812 23.2472 14.5705 23.2121 14.8616 23.1436C15.1527 23.0752 15.4151 22.9697 15.6478 22.8309C15.8796 22.6922 16.0665 22.5155 16.2093 22.299C16.3513 22.0834 16.4232 21.829 16.4232 21.5358C16.4232 21.0427 16.2399 20.6532 15.8733 20.3683C15.5058 20.0834 15.0458 19.8401 14.4914 19.6393C13.9371 19.4395 13.3378 19.2388 12.6945 19.038C12.0503 18.8382 11.451 18.5681 10.8976 18.2286C10.3432 17.89 9.88318 17.4422 9.5157 16.8872C9.14823 16.3321 8.96584 15.6003 8.96584 14.6901C8.96584 13.7798 9.13475 13.0406 9.47078 12.3773C9.80771 11.7149 10.2569 11.1599 10.8185 10.7121C11.38 10.2653 12.0278 9.92949 12.761 9.70561C13.4941 9.48266 14.2506 9.37073 15.0296 9.37073C15.9281 9.37073 16.796 9.50209 17.6352 9.76389C18.4735 10.0266 19.23 10.466 19.9038 11.0822L17.5004 13.7881L17.504 13.789Z" fill="#002868"/>
<path d="M32.0824 24.2196C31.5433 24.9291 30.8613 25.4768 30.0383 25.8616C29.2144 26.2465 28.3609 26.4398 27.4777 26.4398C26.5945 26.4398 25.8497 26.301 25.1075 26.0235C24.3654 25.746 23.7221 25.3491 23.1758 24.832C22.6286 24.3158 22.1983 23.695 21.8838 22.9707C21.5693 22.2463 21.4121 21.4369 21.4121 20.5423C21.4121 19.6477 21.5693 18.8392 21.8838 18.1139C22.1983 17.3895 22.6286 16.7688 23.1758 16.2526C23.7221 15.7364 24.3663 15.3386 25.1075 15.0611C25.8488 14.7835 26.6385 14.6448 27.4777 14.6448C28.2558 14.6448 28.9638 14.7835 29.5999 15.0611C30.236 15.3386 30.7751 15.7355 31.2171 16.2526C31.6583 16.7697 31.9997 17.3895 32.2396 18.1139C32.4786 18.8392 32.599 19.6486 32.599 20.5423V21.6293H24.7823C24.917 22.2926 25.2091 22.8208 25.6583 23.213C26.1075 23.6053 26.661 23.8033 27.3205 23.8033C27.8739 23.8033 28.3429 23.6756 28.7239 23.4221C29.1048 23.1686 29.4391 22.8402 29.723 22.4397L32.0815 24.2205L32.0824 24.2196ZM29.2297 19.2703C29.2441 18.6847 29.0572 18.1833 28.6682 17.767C28.2782 17.3507 27.7769 17.1425 27.1632 17.1425C26.7886 17.1425 26.4588 17.2045 26.1749 17.3276C25.8901 17.4515 25.6466 17.6088 25.4454 17.8012C25.2432 17.9946 25.086 18.2175 24.9737 18.4719C24.8613 18.7263 24.7976 18.9918 24.7832 19.2693H29.2306L29.2297 19.2703Z" fill="#002868"/>
<path d="M42.0765 17.6975H39.1115V21.4442C39.1115 21.7532 39.1259 22.0344 39.1565 22.2879C39.1861 22.5423 39.2535 22.7615 39.3586 22.9466C39.4628 23.1316 39.6246 23.274 39.842 23.374C40.0585 23.4748 40.3469 23.5238 40.7063 23.5238C40.886 23.5238 41.1214 23.5044 41.4143 23.4665C41.7063 23.4285 41.9274 23.3388 42.0774 23.2V26.091C41.7027 26.2297 41.3137 26.3222 40.9094 26.3685C40.5051 26.4148 40.1079 26.4379 39.7189 26.4379C39.1493 26.4379 38.6255 26.3759 38.1466 26.2529C37.6668 26.1298 37.2481 25.9328 36.8887 25.6627C36.5293 25.3934 36.249 25.0419 36.046 24.6099C35.8438 24.1788 35.7423 23.6543 35.7423 23.0372V17.6948H33.5859V14.9195H35.7423V11.5891H39.1115V14.9195H42.0765V17.6948V17.6975Z" fill="#002868"/>
<path d="M14.0676 29.8219H16.9652L23.8834 46.1962H19.9302L18.56 42.727H12.383L11.0578 46.1962H7.19434L14.0676 29.8219ZM15.4154 34.5862L13.4836 39.6742H17.3695L15.4154 34.5862Z" fill="#BF0A30"/>
<path d="M25.0967 28.7118H28.4659V46.1962H25.0967V28.7118Z" fill="#BF0A30"/>
<path d="M41.224 44.2535C40.6849 44.963 40.0029 45.5107 39.1799 45.8955C38.356 46.2804 37.5025 46.4737 36.6193 46.4737C35.7361 46.4737 34.9913 46.335 34.2491 46.0574C33.507 45.7799 32.8637 45.383 32.3174 44.8659C31.7702 44.3497 31.3399 43.729 31.0254 43.0046C30.7109 42.2803 30.5537 41.4708 30.5537 40.5762C30.5537 39.6817 30.7109 38.8731 31.0254 38.1478C31.3399 37.4235 31.7702 36.8027 32.3174 36.2865C32.8637 35.7703 33.5079 35.3725 34.2491 35.095C34.9904 34.8175 35.7801 34.6787 36.6193 34.6787C37.3974 34.6787 38.1054 34.8175 38.7415 35.095C39.3776 35.3725 39.9167 35.7694 40.3587 36.2865C40.7999 36.8037 41.1413 37.4235 41.3812 38.1478C41.6202 38.8731 41.7406 39.6826 41.7406 40.5762V41.6632H33.9239C34.0587 42.3265 34.3507 42.8547 34.7999 43.247C35.2491 43.6392 35.8026 43.8372 36.4621 43.8372C37.0155 43.8372 37.4845 43.7095 37.8655 43.4561C38.2464 43.2026 38.5807 42.8742 38.8646 42.4736L41.2231 44.2544L41.224 44.2535ZM38.3713 39.3042C38.3857 38.7186 38.1988 38.2172 37.8098 37.8009C37.4198 37.3846 36.9185 37.1765 36.3048 37.1765C35.9302 37.1765 35.6004 37.2385 35.3165 37.3615C35.0317 37.4855 34.7882 37.6427 34.587 37.8352C34.3848 38.0285 34.2276 38.2514 34.1153 38.5058C34.0029 38.7603 33.9392 39.0258 33.9248 39.3033H38.3722L38.3713 39.3042Z" fill="#BF0A30"/>
<path d="M43.7842 34.9562H47.1534V36.7602H47.1984C47.5578 36.0664 47.9845 35.5465 48.4787 35.1986C48.9729 34.8508 49.5937 34.6787 50.343 34.6787C50.5371 34.6787 50.7321 34.687 50.927 34.7018C51.1211 34.7176 51.3008 34.7481 51.4661 34.7943V37.9628C51.2262 37.886 50.9908 37.8277 50.7581 37.7889C50.5254 37.751 50.2828 37.7315 50.0286 37.7315C49.3844 37.7315 48.8749 37.824 48.5012 38.0091C48.1265 38.1941 47.8381 38.4522 47.6368 38.7843C47.4347 39.1164 47.3035 39.5133 47.2433 39.9758C47.1831 40.4384 47.1534 40.9472 47.1534 41.5022V46.1971H43.7842V34.9572V34.9562Z" fill="#BF0A30"/>
<path d="M60.8099 37.7315H57.8449V41.4781C57.8449 41.7871 57.8593 42.0683 57.8899 42.3218C57.9195 42.5762 57.9869 42.7955 58.092 42.9805C58.1962 43.1655 58.358 43.308 58.5754 43.4079C58.7919 43.5087 59.0803 43.5578 59.4397 43.5578C59.6194 43.5578 59.8548 43.5383 60.1477 43.5004C60.4397 43.4625 60.6607 43.3727 60.8108 43.234V46.1249C60.4361 46.2637 60.0471 46.3562 59.6428 46.4024C59.2385 46.4487 58.8413 46.4718 58.4523 46.4718C57.8827 46.4718 57.3589 46.4098 56.88 46.2868C56.4002 46.1638 55.9815 45.9667 55.6221 45.6966C55.2627 45.4274 54.9824 45.0758 54.7794 44.6438C54.5772 44.2127 54.4757 43.6882 54.4757 43.0712V37.7287H52.3193V34.9534H54.4757V31.623H57.8449V34.9534H60.8099V37.7287V37.7315Z" fill="#BF0A30"/>
<path d="M68.6936 38.2635C68.1995 37.6316 67.5481 37.3152 66.7394 37.3152C66.4546 37.3152 66.1779 37.3846 65.9084 37.5234C65.6388 37.6621 65.504 37.9017 65.504 38.2403C65.504 38.5179 65.6424 38.7223 65.9191 38.8527C66.1959 38.9841 66.5481 39.0997 66.9748 39.1997C67.4016 39.3005 67.858 39.4078 68.345 39.5234C68.8311 39.6391 69.2884 39.8204 69.7152 40.0674C70.142 40.3144 70.4933 40.6493 70.7709 41.0739C71.0476 41.4985 71.186 42.0647 71.186 42.7742C71.186 43.4838 71.0323 44.0962 70.726 44.5671C70.4187 45.038 70.0261 45.4154 69.5472 45.7003C69.0674 45.9862 68.5283 46.186 67.9299 46.3016C67.3306 46.4173 66.7394 46.4756 66.1554 46.4756C65.3917 46.4756 64.6199 46.3636 63.8419 46.1407C63.0629 45.9177 62.4043 45.5199 61.8652 44.9491L63.9093 42.6133C64.2237 43.0148 64.5723 43.3182 64.9533 43.5273C65.3342 43.7363 65.7808 43.8399 66.2902 43.8399C66.6792 43.8399 67.0314 43.7826 67.3459 43.666C67.6604 43.5495 67.8176 43.3386 67.8176 43.0296C67.8176 42.7372 67.6792 42.5171 67.4025 42.3709C67.1249 42.2247 66.7736 42.1017 66.3468 42.0009C65.92 41.9009 65.4627 41.7927 64.9766 41.6771C64.4897 41.5614 64.0332 41.3884 63.6065 41.1572C63.1797 40.9259 62.8275 40.5984 62.5508 40.1747C62.2731 39.751 62.1357 39.1839 62.1357 38.4744C62.1357 37.812 62.2669 37.2412 62.5292 36.7629C62.7907 36.2856 63.1357 35.8924 63.5624 35.5834C63.9892 35.2754 64.4798 35.0478 65.0341 34.9007C65.5876 34.7546 66.1491 34.6805 66.7188 34.6805C67.4376 34.6805 68.1635 34.7888 68.8976 35.0043C69.6307 35.2208 70.2525 35.6056 70.7619 36.1607L68.6954 38.2653L68.6936 38.2635Z" fill="#BF0A30"/>
<path d="M95.2597 12.9223C96.5409 12.9223 97.77 13.4015 98.77 13.9575C97.2498 10.4671 92.9983 7.93506 88.0216 7.93506H44.4619C44.4619 10.6669 46.4889 12.9028 48.9678 12.9028H72.7638L95.2597 12.9223Z" fill="#BF0A30"/>
<path d="M97.5912 19.4868C101.903 19.4868 102.742 20.8745 102.857 20.9485C102.682 20.4462 102.467 19.9559 102.215 19.4868H102.22C102.198 19.447 102.173 19.4091 102.152 19.3693C102.095 19.2694 102.039 19.1704 101.978 19.0733C101.93 18.9947 101.883 18.916 101.833 18.8383C101.769 18.7384 101.701 18.6404 101.633 18.5423C101.583 18.4692 101.532 18.3971 101.479 18.3249C101.406 18.2268 101.331 18.1306 101.254 18.0344C101.201 17.9669 101.146 17.8975 101.091 17.8318C101.011 17.7356 100.926 17.6431 100.842 17.5506C100.785 17.4868 100.727 17.4229 100.669 17.3609C100.579 17.2684 100.485 17.1796 100.394 17.0899C100.332 17.0316 100.274 16.9724 100.212 16.9151C100.113 16.8262 100.012 16.7402 99.9093 16.6551C99.8464 16.6024 99.7871 16.5487 99.7233 16.4988C99.6092 16.4081 99.4915 16.323 99.372 16.236C99.3145 16.1953 99.2615 16.1518 99.2031 16.1121C99.0252 15.99 98.8428 15.8715 98.6541 15.7578C98.5211 15.6791 98.3882 15.6051 98.2534 15.5339C98.1582 15.483 98.0611 15.4367 97.9659 15.3886C97.9309 15.372 97.8967 15.3535 97.8617 15.3378C97.7395 15.2804 97.6164 15.2267 97.4915 15.1731C97.4834 15.1703 97.4771 15.1666 97.469 15.1629C97.3406 15.1102 97.213 15.0593 97.0845 15.013C97.08 15.0112 97.0755 15.0103 97.071 15.0084C96.4205 14.7697 95.1672 14.519 92.6829 14.519H50.6416C50.6416 17.2509 52.8114 19.4859 55.4664 19.4859H97.593L97.5912 19.4868Z" fill="#BF0A30"/>
<path d="M82.9689 21.2843H57.0947C57.0947 24.017 59.2654 26.253 61.9213 26.253H77.0767C79.0354 25.2641 81.1953 23.5822 82.9689 21.2843Z" fill="#BF0A30"/>
<path d="M100.252 14.6772C101.554 15.5172 102.579 16.5672 103.324 17.8262C104.964 15.8123 104.592 14.2637 103.568 13.3987C102.534 12.5263 100.794 12.9463 99.6416 14.3293C99.8483 14.4339 100.052 14.5486 100.252 14.6772Z" fill="#002868"/>
<path d="M91.8892 28.8959C91.7104 28.7812 91.5307 28.6656 91.3465 28.5518C91.2414 28.488 91.1335 28.4241 91.0275 28.3594C90.8487 28.2511 90.669 28.142 90.4831 28.0347C90.3672 27.9671 90.2503 27.8996 90.1326 27.833C89.9512 27.7294 89.7715 27.6267 89.5882 27.5249C89.4615 27.4546 89.3339 27.3871 89.2054 27.3168C89.0248 27.2187 88.8451 27.1207 88.6592 27.0245C88.5226 26.9523 88.3824 26.882 88.2414 26.8098C88.0626 26.7182 87.8847 26.6267 87.7023 26.5351C87.5513 26.4611 87.3995 26.388 87.2468 26.3149C87.0689 26.2289 86.8937 26.1419 86.7131 26.0577C86.5522 25.9819 86.3878 25.9079 86.2243 25.8329C86.0491 25.7524 85.8757 25.671 85.696 25.5915C85.5235 25.5147 85.3456 25.4388 85.1686 25.363C84.9979 25.289 84.8272 25.214 84.6529 25.14C84.4651 25.0614 84.2737 24.9837 84.0832 24.906C83.9152 24.8384 83.7499 24.7681 83.581 24.7025C83.3752 24.621 83.1677 24.5415 82.9593 24.4629C82.8011 24.4018 82.6448 24.3398 82.4867 24.2806C82.395 24.2473 82.3034 24.2149 82.2108 24.1816C81.5738 24.8088 80.5352 25.7441 79.8604 26.2529C82.8245 27.203 86.2998 28.3677 89.3043 30.6296C91.8685 32.5612 94.342 34.7648 96.174 37.0627C96.2647 37.1765 96.1084 37.3227 96.0078 37.2172C95.97 37.1811 95.9332 37.1441 95.8954 37.108C95.7751 36.9933 95.6529 36.8777 95.5298 36.763C95.4974 36.7334 95.466 36.7028 95.4336 36.6742C95.2872 36.5391 95.1371 36.404 94.9844 36.2699C94.9736 36.2607 94.9637 36.2505 94.9529 36.2412C94.6205 35.9489 94.2746 35.6575 93.9161 35.3689C93.8775 35.3374 93.8379 35.3069 93.7993 35.2754C93.6627 35.1663 93.5244 35.0571 93.3842 34.9479C93.3276 34.9035 93.2692 34.86 93.2117 34.8156C93.0868 34.7204 92.9619 34.6251 92.8344 34.5307C92.7679 34.4808 92.7005 34.4317 92.634 34.3827C92.5127 34.2939 92.3896 34.2051 92.2656 34.1163C92.1937 34.0654 92.1219 34.0136 92.0491 33.9627C91.926 33.8757 91.802 33.7897 91.6762 33.7046C91.6026 33.6537 91.5289 33.6038 91.4543 33.5538C91.3249 33.4669 91.1946 33.3808 91.0635 33.2948C90.9907 33.2467 90.9188 33.1986 90.8451 33.1514C90.7032 33.0598 90.5594 32.9691 90.4148 32.8785C90.3501 32.8378 90.2872 32.798 90.2234 32.7573C90.014 32.6278 89.8029 32.4983 89.5882 32.3715C89.3681 32.2411 89.1479 32.1125 88.9278 31.9876C88.82 31.9266 88.7122 31.8674 88.6043 31.8072C88.492 31.7452 88.3806 31.6823 88.2692 31.6213C88.1461 31.5547 88.023 31.4899 87.8999 31.4252C87.8038 31.3743 87.7077 31.3225 87.6115 31.2725C87.4849 31.2068 87.3582 31.1439 87.2306 31.0792C87.1389 31.0329 87.0464 30.9867 86.9557 30.9413C86.8263 30.8775 86.6987 30.8164 86.5702 30.7554C86.4822 30.7128 86.3932 30.6703 86.3052 30.6286C86.1758 30.5676 86.0464 30.5093 85.9179 30.451C85.8317 30.4122 85.7445 30.3724 85.6583 30.3345C85.5289 30.2771 85.4004 30.2216 85.271 30.1661C85.1866 30.13 85.1021 30.0939 85.0177 30.0588C84.8883 30.0051 84.7598 29.9524 84.6322 29.9006C84.5495 29.8673 84.466 29.834 84.3833 29.8016C84.2548 29.7507 84.1264 29.7017 83.9997 29.6536C83.9188 29.6231 83.8389 29.5935 83.7589 29.5639C83.6304 29.5167 83.5019 29.4695 83.3752 29.4251C83.298 29.3973 83.2207 29.3714 83.1434 29.3446C83.015 29.3002 82.8874 29.2567 82.7607 29.2151C82.6861 29.1901 82.6124 29.1679 82.5388 29.1439C82.4103 29.1032 82.2827 29.0624 82.1551 29.0245C82.0859 29.0032 82.0177 28.9838 81.9494 28.9644C81.8191 28.9265 81.6888 28.8885 81.5594 28.8534C81.4992 28.8367 81.4399 28.8219 81.3806 28.8062C81.2459 28.7701 81.1102 28.734 80.9772 28.7017C80.9341 28.6915 80.8928 28.6822 80.8496 28.6721C77.147 27.7867 74.2486 28.1272 73.2728 29.8673C71.6017 32.848 76.1964 38.8019 83.5361 43.1656C86.2836 44.7984 89.0266 45.977 91.4705 46.6569C91.6699 46.7124 91.7625 46.4108 91.5675 46.3396C89.8379 45.7068 87.9404 44.8187 85.9485 43.6346C78.5487 39.2358 75.2198 33.946 76.1785 32.2365C76.342 31.9451 76.6592 31.7138 77.1039 31.55C77.2486 34.7555 81.4938 39.5864 87.705 43.2794C90.6906 45.0528 93.6699 46.2915 96.2647 46.9354C96.2647 46.9354 98.2539 47.4377 99.4408 46.2156C100.627 44.9945 99.9476 42.827 99.9476 42.827C99.0841 39.27 99.6834 34.0034 102.147 29.612C103.397 27.3825 103.701 24.8597 103.192 22.5331C102.121 21.8596 100.752 21.2824 98.7463 21.2916H84.6457C84.2459 21.8698 83.8155 22.4184 83.3663 22.9411C86.5567 24.6201 89.554 26.5749 92.0527 28.6628C92.1901 28.7775 92.0347 28.994 91.8874 28.8941L91.8892 28.8959ZM87.1677 37.8564C85.475 36.9045 84.8056 34.7749 85.5945 32.996C86.8874 33.5677 88.2737 34.2726 89.7463 35.1413C90.5145 35.5946 91.2692 36.084 91.9961 36.5844C90.97 38.2357 88.864 38.8102 87.1686 37.8564H87.1677Z" fill="#002868"/>
</svg>
